<?xml version="1.0" encoding="UTF-8"?>
<!DOCTYPE svg PUBLIC "-//W3C//DTD SVG 1.1//EN" "http://www.w3.org/Graphics/SVG/1.1/DTD/svg11.dtd">
<!-- Creator: CorelDRAW X8 -->
<svg xmlns="http://www.w3.org/2000/svg" xml:space="preserve" width="20.038mm" height="20.038mm" version="1.1" style="shape-rendering:geometricPrecision; text-rendering:geometricPrecision; image-rendering:optimizeQuality; fill-rule:evenodd; clip-rule:evenodd"
viewBox="0 0 111 111"
 xmlns:xlink="http://www.w3.org/1999/xlink">
 <defs>
  <style type="text/css">
   <![CDATA[
    .fil0 {fill:#2F3180;fill-rule:nonzero}
   ]]>
  </style>
 </defs>
 <g id="Layer_x0020_1">
  <metadata id="CorelCorpID_0Corel-Layer"/>
  <path class="fil0" d="M55 8c-13,0 -25,5 -33,14 -9,8 -14,20 -14,33 0,13 5,25 14,34 8,9 20,14 33,14 13,0 25,-5 34,-14 9,-9 14,-21 14,-34 0,-13 -5,-25 -14,-33 -9,-9 -21,-14 -34,-14zm-39 8c10,-10 24,-16 39,-16 16,0 29,6 40,16 10,10 16,24 16,39 0,16 -6,29 -16,40 -11,10 -24,16 -40,16 -15,0 -29,-6 -39,-16 -10,-11 -16,-24 -16,-40 0,-15 6,-29 16,-39zm61 36c2,0 3,2 3,3 0,2 -1,3 -3,3l-36 0 13 14c1,1 1,3 0,4 -1,1 -3,1 -4,0l-18 -19c-1,0 -1,0 -1,0l0 0c0,0 0,-1 0,-2 0,0 0,-1 0,-1l0 0c0,-1 0,-1 1,-1l18 -18c1,-2 3,-2 4,0 1,1 1,3 0,4l-13 13 36 0z"/>
 </g>
</svg>
