<?xml version="1.0" encoding="UTF-8"?>
<!DOCTYPE svg PUBLIC "-//W3C//DTD SVG 1.1//EN" "http://www.w3.org/Graphics/SVG/1.1/DTD/svg11.dtd">
<!-- Creator: CorelDRAW X8 -->
<svg xmlns="http://www.w3.org/2000/svg" xml:space="preserve" width="20.038mm" height="20.038mm" version="1.1" style="shape-rendering:geometricPrecision; text-rendering:geometricPrecision; image-rendering:optimizeQuality; fill-rule:evenodd; clip-rule:evenodd"
viewBox="0 0 124 124"
 xmlns:xlink="http://www.w3.org/1999/xlink">
 <defs>
  <style type="text/css">
   <![CDATA[
    .fil0 {fill:#2F3180;fill-rule:nonzero}
   ]]>
  </style>
 </defs>
 <g id="Layer_x0020_1">
  <metadata id="CorelCorpID_0Corel-Layer"/>
  <path class="fil0" d="M62 0c17,0 33,7 44,18 12,11 18,27 18,44 0,17 -6,33 -18,44 -11,12 -27,18 -44,18 -17,0 -33,-6 -44,-18 -11,-11 -18,-27 -18,-44 0,-17 7,-33 18,-44 11,-11 27,-18 44,-18zm38 24c-10,-9 -23,-15 -38,-15 -15,0 -28,6 -38,15 -9,10 -15,23 -15,38 0,15 6,28 15,38 10,10 23,16 38,16 15,0 28,-6 38,-16 10,-10 16,-23 16,-38 0,-15 -6,-28 -16,-38zm-62 42c-2,0 -4,-2 -4,-4 0,-2 2,-3 4,-3l41 0 -16 -15c-1,-2 -1,-4 0,-5 2,-1 4,-1 5,0l21 21c0,0 0,0 0,0l0 0c1,1 1,2 1,2 0,1 0,2 -1,2l0 0c0,0 0,0 0,1l-21 21c-1,1 -3,1 -5,0 -1,-2 -1,-4 0,-5l16 -15 -41 0z"/>
 </g>
</svg>
