<?xml version="1.0" encoding="UTF-8"?>
<!DOCTYPE svg PUBLIC "-//W3C//DTD SVG 1.1//EN" "http://www.w3.org/Graphics/SVG/1.1/DTD/svg11.dtd">
<svg xmlns="http://www.w3.org/2000/svg" version="1.1" width="512px" height="512px" style="shape-rendering:geometricPrecision; text-rendering:geometricPrecision; image-rendering:optimizeQuality; fill-rule:evenodd; clip-rule:evenodd" xmlns:xlink="http://www.w3.org/1999/xlink">
<g><path style="opacity:0.958" fill="#fefffe" d="M 87.5,-0.5 C 93.1667,-0.5 98.8333,-0.5 104.5,-0.5C 117.93,3.75989 127.43,12.4266 133,25.5C 152.202,86.7726 171.202,148.106 190,209.5C 191.831,217.462 191.998,225.462 190.5,233.5C 266.501,233.333 342.501,233.5 418.5,234C 442.162,239.131 451.328,253.631 446,277.5C 442,286.833 435.333,293.5 426,297.5C 421.205,348.738 397.038,387.738 353.5,414.5C 373.254,441.595 383.087,471.928 383,505.5C 381.64,508.023 379.807,510.023 377.5,511.5C 310.5,511.5 243.5,511.5 176.5,511.5C 172.999,509.494 170.833,506.494 170,502.5C 170.26,465.651 164.926,429.651 154,394.5C 147.466,376.564 141.133,358.564 135,340.5C 128.89,321.618 126.556,302.285 128,282.5C 129.251,279.619 131.417,277.786 134.5,277C 139.489,276.501 144.489,276.334 149.5,276.5C 147.843,269.379 148.177,262.379 150.5,255.5C 138.16,251.662 128.993,243.996 123,232.5C 102.929,168.955 83.2626,105.288 64,41.5C 60.7313,21.018 68.5646,7.01799 87.5,-0.5 Z M 92.5,21.5 C 105.495,22.3209 112.995,29.3209 115,42.5C 132.845,100.88 150.845,159.213 169,217.5C 169.548,232.615 163.048,236.782 149.5,230C 144.384,225.271 141.217,219.438 140,212.5C 122.155,154.12 104.155,95.7869 86,37.5C 84.062,30.3891 86.2287,25.0558 92.5,21.5 Z M 181.5,255.5 C 259.501,255.333 337.501,255.5 415.5,256C 423.954,258.075 426.788,263.241 424,271.5C 422.238,274.268 419.738,275.768 416.5,276C 337.5,276.667 258.5,276.667 179.5,276C 174.07,274.901 171.07,271.568 170.5,266C 171.822,259.841 175.488,256.341 181.5,255.5 Z M 149.5,298.5 C 234.167,298.5 318.833,298.5 403.5,298.5C 397.972,347.404 372.638,381.57 327.5,401C 322.064,405.785 321.23,411.285 325,417.5C 341.033,432.547 351.7,450.88 357,472.5C 358.617,478.086 359.784,483.753 360.5,489.5C 304.167,489.5 247.833,489.5 191.5,489.5C 191.436,456.452 186.603,424.118 177,392.5C 169.803,372.575 162.803,352.575 156,332.5C 152.867,321.338 150.701,310.005 149.5,298.5 Z"/></g>
<g><path style="opacity:0.932" fill="#fefffe" d="M 357.5,319.5 C 370.024,318.181 374.857,323.515 372,335.5C 360.242,358.373 342.242,374.04 318,382.5C 307.208,379.633 304.375,373.299 309.5,363.5C 318.674,358.749 327.341,353.249 335.5,347C 343.488,338.198 350.821,329.032 357.5,319.5 Z"/></g>
</svg>
