<?xml version="1.0" encoding="UTF-8"?>
<!DOCTYPE svg PUBLIC "-//W3C//DTD SVG 1.1//EN" "http://www.w3.org/Graphics/SVG/1.1/DTD/svg11.dtd">
<svg xmlns="http://www.w3.org/2000/svg" version="1.1" width="512px" height="512px" style="shape-rendering:geometricPrecision; text-rendering:geometricPrecision; image-rendering:optimizeQuality; fill-rule:evenodd; clip-rule:evenodd" xmlns:xlink="http://www.w3.org/1999/xlink">
<g><path style="opacity:0.98" fill="#fefffe" d="M 511.5,62.5 C 511.5,196.833 511.5,331.167 511.5,465.5C 503.092,484.533 489.426,489.366 470.5,480C 465.688,476.2 462.521,471.366 461,465.5C 460.5,373.501 460.333,281.501 460.5,189.5C 323.833,189.5 187.167,189.5 50.5,189.5C 50.6667,281.501 50.5,373.501 50,465.5C 43.8068,482.346 31.9735,488.179 14.5,483C 7.06625,479.08 2.06625,473.246 -0.5,465.5C -0.5,331.167 -0.5,196.833 -0.5,62.5C 4.98458,44.1828 16.9846,32.3494 35.5,27C 182.167,26.3333 328.833,26.3333 475.5,27C 494.015,32.3494 506.015,44.1828 511.5,62.5 Z M 50.5,103.5 C 187.167,103.5 323.833,103.5 460.5,103.5C 460.5,105.5 460.5,107.5 460.5,109.5C 323.833,109.5 187.167,109.5 50.5,109.5C 50.5,107.5 50.5,105.5 50.5,103.5 Z M 50.5,130.5 C 187.167,130.5 323.833,130.5 460.5,130.5C 460.5,133.167 460.5,135.833 460.5,138.5C 323.833,138.5 187.167,138.5 50.5,138.5C 50.5,135.833 50.5,133.167 50.5,130.5 Z M 50.5,160.5 C 187.167,160.5 323.833,160.5 460.5,160.5C 460.5,162.833 460.5,165.167 460.5,167.5C 323.833,167.5 187.167,167.5 50.5,167.5C 50.5,165.167 50.5,162.833 50.5,160.5 Z M 184.5,228.5 C 231.835,228.333 279.168,228.5 326.5,229C 338.657,230.502 347.49,236.668 353,247.5C 361.6,268.195 369.767,289.028 377.5,310C 377.544,315.624 374.877,319.291 369.5,321C 293.5,321.667 217.5,321.667 141.5,321C 134.642,318.451 132.142,313.617 134,306.5C 142.562,284.139 151.895,262.139 162,240.5C 168.257,233.958 175.757,229.958 184.5,228.5 Z M 132.5,361.5 C 151.26,361.026 169.927,361.526 188.5,363C 190.049,364.214 191.215,365.714 192,367.5C 192.945,376.935 192.611,386.268 191,395.5C 189.786,397.049 188.286,398.215 186.5,399C 168.076,399.973 149.743,399.64 131.5,398C 130.333,396.833 129.167,395.667 128,394.5C 127.333,385.167 127.333,375.833 128,366.5C 129.366,364.638 130.866,362.972 132.5,361.5 Z M 323.5,361.5 C 341.503,361.333 359.503,361.5 377.5,362C 380.663,363.48 382.496,365.98 383,369.5C 383.905,377.911 383.572,386.245 382,394.5C 380.833,396.333 379.333,397.833 377.5,399C 359.5,399.667 341.5,399.667 323.5,399C 320.619,397.749 318.786,395.583 318,392.5C 317.333,384.5 317.333,376.5 318,368.5C 318.967,365.379 320.8,363.046 323.5,361.5 Z"/></g>
<g><path style="opacity:0.978" fill="#fefffe" d="M 169.5,212.5 C 227.879,212.016 286.212,212.516 344.5,214C 361.671,219.002 373.504,229.836 380,246.5C 384.021,257.405 388.521,268.071 393.5,278.5C 401.607,274.84 409.941,274.007 418.5,276C 428.941,282.886 432.108,292.386 428,304.5C 424.571,312.929 418.404,318.096 409.5,320C 414.961,334.679 418.461,349.846 420,365.5C 420.97,397.548 420.637,429.548 419,461.5C 415.677,468.754 410.177,473.588 402.5,476C 369.238,483.221 353.905,470.054 356.5,436.5C 289.167,436.5 221.833,436.5 154.5,436.5C 157.08,470.07 141.747,483.237 108.5,476C 99.3333,473.5 93.5,467.667 91,458.5C 90.3333,426.5 90.3333,394.5 91,362.5C 92.8282,348.355 95.9948,334.521 100.5,321C 83.6879,313.538 78.1879,301.038 84,283.5C 87.712,277.643 93.0453,274.643 100,274.5C 106.028,275.005 111.862,276.339 117.5,278.5C 122.819,267.045 127.652,255.379 132,243.5C 140.147,227.849 152.647,217.516 169.5,212.5 Z M 184.5,228.5 C 175.757,229.958 168.257,233.958 162,240.5C 151.895,262.139 142.562,284.139 134,306.5C 132.142,313.617 134.642,318.451 141.5,321C 217.5,321.667 293.5,321.667 369.5,321C 374.877,319.291 377.544,315.624 377.5,310C 369.767,289.028 361.6,268.195 353,247.5C 347.49,236.668 338.657,230.502 326.5,229C 279.168,228.5 231.835,228.333 184.5,228.5 Z M 132.5,361.5 C 130.866,362.972 129.366,364.638 128,366.5C 127.333,375.833 127.333,385.167 128,394.5C 129.167,395.667 130.333,396.833 131.5,398C 149.743,399.64 168.076,399.973 186.5,399C 188.286,398.215 189.786,397.049 191,395.5C 192.611,386.268 192.945,376.935 192,367.5C 191.215,365.714 190.049,364.214 188.5,363C 169.927,361.526 151.26,361.026 132.5,361.5 Z M 323.5,361.5 C 320.8,363.046 318.967,365.379 318,368.5C 317.333,376.5 317.333,384.5 318,392.5C 318.786,395.583 320.619,397.749 323.5,399C 341.5,399.667 359.5,399.667 377.5,399C 379.333,397.833 380.833,396.333 382,394.5C 383.572,386.245 383.905,377.911 383,369.5C 382.496,365.98 380.663,363.48 377.5,362C 359.503,361.5 341.503,361.333 323.5,361.5 Z"/></g>
</svg>
