<?xml version="1.0" encoding="UTF-8"?>
<!DOCTYPE svg PUBLIC "-//W3C//DTD SVG 1.1//EN" "http://www.w3.org/Graphics/SVG/1.1/DTD/svg11.dtd">
<!-- Creator: CorelDRAW 2020 (64 Bit) -->
<svg xmlns="http://www.w3.org/2000/svg" xml:space="preserve" width="50.8mm" height="50.7998mm" version="1.1" style="shape-rendering:geometricPrecision; text-rendering:geometricPrecision; image-rendering:optimizeQuality; fill-rule:evenodd; clip-rule:evenodd"
viewBox="0 0 5080 5079.98"
 xmlns:xlink="http://www.w3.org/1999/xlink"
 xmlns:xodm="http://www.corel.com/coreldraw/odm/2003">
 <defs>
  <style type="text/css">
   <![CDATA[
    .fil0 {fill:#ffffff}
   ]]>
  </style>
 </defs>
 <g id="Camada_x0020_1">
  <metadata id="CorelCorpID_0Corel-Layer"/>
  <g id="_2303605730336">
   <path class="fil0" d="M880.32 4823.37l-598.96 -603.95 253.34 -248.18c101.37,69.03 276.91,323.73 372.41,323.73 66.39,0 106.77,-63.24 90.2,-118.46 -22.87,-76.2 -255.94,-247.49 -323.95,-349.07l173.08 -167.82c83.81,56.86 283.8,323.67 372.37,323.67 44.24,0 97.39,-46.27 97.39,-87.67 0,-78.74 -102.75,-156.33 -148.53,-202.1 -45.4,-45.41 -142.4,-132.23 -172.89,-177.76l167.83 -173.1c63.57,41.84 306.54,328.94 358.14,328.94 68.96,0 107.15,-45.97 107.15,-116.88 0,-53.74 -277.44,-284.95 -321.43,-350.65l167.83 -173.09c154.28,101.1 287.61,369.58 411.63,315.08 53.71,-23.61 53.65,-58.58 53.65,-93.29 0,-48.37 -38.5,-72.8 -65.73,-99.85l-255.69 -260.53 172.95 -177.7 258.05 253.19c57.22,57.43 52.07,70.61 133.92,70.61 28,0 92.53,-51.76 66.61,-124.27 -15.68,-43.87 -68.67,-87.21 -103.13,-121.68 -54.03,-54.02 -181.14,-168.45 -216.72,-221.58l173.09 -167.84c104.47,71.63 287.16,323.68 362.63,323.68 83.56,0 115.59,-66.29 99.92,-118.46 -22.87,-76.21 -255.93,-247.49 -323.96,-349.08l173.1 -167.82c109.83,75.3 277.81,323.67 372.36,323.67 49.85,0 97.4,-51.23 97.4,-97.4 0,-88.16 -267,-288.85 -321.43,-370.13l167.84 -173.09c96.09,62.73 292.74,328.94 367.88,328.94 52.22,0 97.39,-45.02 97.39,-116.89 0,-53.73 -277.42,-284.93 -321.41,-350.64l167.82 -173.1c85.28,55.89 270.42,289.54 332.65,316.32 26.69,11.5 49.74,11.82 79.03,-1.3 53.92,-24.13 53.61,-58.22 53.61,-93.23 0,-53.54 -99.02,-133.1 -153.41,-187.49 -44.44,-44.44 -138.1,-128.21 -168.02,-172.89l167.82 -173.09c63.47,41.76 294.67,319.2 348.41,319.2 43.15,0 80.67,7.73 109.55,-46.99 67.04,-126.97 -203.53,-255.44 -314.1,-420.55l703.72 -698.88 603.89 599.06 -3925.3 3920.41zm3316.01 -4755.65l18.67 0c51,6.86 106.88,68.99 225.38,187.5 70.56,70.56 133.98,133.99 204.55,204.54 273.88,273.89 388.22,363.39 392.04,435.25l0 6.81c-1.91,42.9 -43.65,81.3 -114.44,152.1l-3759.73 3759.72c-57.08,57.08 -208.58,241.07 -284.91,241.07 -72.76,0 -369.35,-325.52 -435.87,-392.04 -72.18,-72.19 -137.22,-137.23 -209.41,-209.42 -56.84,-56.83 -182.63,-156.07 -182.63,-236.2 0,-58.22 197.61,-231.69 245.94,-280.03l3628.23 -3628.23c152.5,-152.5 213.81,-233.35 272.18,-241.07z"/>
   <path class="fil0" d="M4199.31 778.75c86.74,0 126.63,40.31 126.63,126.63 0,92.66 -128.39,132.83 -197.13,70.5 -65.55,-59.47 -22.11,-197.13 70.5,-197.13zm321.43 126.63c0,-385.88 -496.37,-421.68 -599.75,-122.48 -91.73,265.52 165.71,499.05 414.83,395.36 90.57,-37.7 184.92,-145.34 184.92,-272.88z"/>
  </g>
 </g>
</svg>
