<?xml version="1.0" encoding="UTF-8"?>
<svg version="1.1" xmlns="http://www.w3.org/2000/svg" width="512" height="512">
<path d="M0 0 C11.73446767 10.05561685 22.19236747 20.81640503 30.5 33.875 C31.19480469 34.9475 31.88960937 36.02 32.60546875 37.125 C44.01113696 55.83294322 50.70649873 77.95452751 51.5 99.875 C51.57734375 101.35806641 51.57734375 101.35806641 51.65625 102.87109375 C52.71639323 140.37366063 37.95257108 174.85546531 12.5 201.875 C-9.76863049 224.70281324 -42.98719866 240.67733286 -75.1484375 241.078125 C-111.59624031 241.44859665 -143.39701498 232.87672021 -171.5 208.875 C-172.30824219 208.20082031 -173.11648437 207.52664063 -173.94921875 206.83203125 C-199.89829786 184.46775427 -215.75162188 150.87447863 -218.3359375 116.84765625 C-219.99742485 86.74308777 -213.29628697 55.6640068 -195.5 30.875 C-194.80777344 29.88757813 -194.11554688 28.90015625 -193.40234375 27.8828125 C-182.47123629 12.95518996 -169.35538556 0.43194292 -153.5 -9.125 C-152.87770508 -9.50092285 -152.25541016 -9.8768457 -151.61425781 -10.26416016 C-104.84409386 -37.95475433 -42.67207122 -33.53255818 0 0 Z M-158.5 15.875 C-159.33660156 16.59429687 -160.17320312 17.31359375 -161.03515625 18.0546875 C-185.23571303 39.1526088 -199.12622555 67.94606193 -201.5 99.875 C-203.25236773 131.6040412 -191.85726961 161.9907814 -170.92529297 185.65527344 C-151.51427549 206.99722983 -123.4758481 222.37733001 -94.375 224.05517578 C-60.58443719 225.39431882 -31.01297663 217.1763375 -5.3125 194.375 C-3.70367023 192.88000252 -2.09920337 191.38029042 -0.5 189.875 C0.16515625 189.28589844 0.8303125 188.69679688 1.515625 188.08984375 C23.02163452 168.20115608 32.59499989 138.35437641 34.71875 109.94921875 C35.79104917 78.36107229 23.03877369 48.00865845 1.74243164 25.14038086 C-19.76184294 2.80281095 -49.38038488 -10.68833963 -80.38305664 -11.40844727 C-108.38788525 -11.6922397 -137.43093626 -3.27869431 -158.5 15.875 Z " fill="#FFFFFF" transform="translate(339.5,150.125)"/>
<path d="M0 0 C3.14820679 2.68630773 5.14674328 5.64974052 7.25 9.1875 C14.79869365 21.19823927 23.83944821 28.90066732 37.125 34.078125 C40.10626334 35.54391281 41.67381305 37.16123355 42.875 40.25 C43.21336212 47.69396667 37.6658417 53.73325445 33 59 C24.53687462 68.00718344 13.44598446 75.15352608 1 77 C-2.46647673 77.10297495 -5.91099481 76.95004964 -9.375 76.8125 C-17.3274693 76.66844851 -23.52906324 76.87333116 -30 82 C-30.60199219 82.44988281 -31.20398438 82.89976562 -31.82421875 83.36328125 C-36.74560813 87.64323112 -39.79702278 93.32422195 -42.98071289 98.93310547 C-45.81257721 103.9062886 -45.81257721 103.9062886 -48 105 C-51.0036276 105.34467858 -53.09649903 105.55491621 -56 105 C-62.33349238 99.69754126 -65.86577058 90.05653679 -67 82 C-68.38033982 62.40941735 -63.86892067 46.62444008 -51.109375 31.39453125 C-40.71673813 19.59696383 -16.9956922 -3.80937929 0 0 Z M-35 39 C-43.28255778 47.70157419 -50.20871471 58.46796455 -50.0625 70.75 C-50.05347656 71.73484375 -50.04445313 72.7196875 -50.03515625 73.734375 C-50.02355469 74.48203125 -50.01195313 75.2296875 -50 76 C-49.05125 75.13375 -48.1025 74.2675 -47.125 73.375 C-42.73411189 69.63657318 -38.09263803 66.69387688 -33 64 C-32.22527344 63.58234375 -31.45054688 63.1646875 -30.65234375 62.734375 C-24.2279584 59.84289253 -18.46339943 59.87654581 -11.5625 60.0625 C1.2663326 60.38094221 10.53906556 56.92159376 20 48 C20.33 47.34 20.66 46.68 21 46 C20.34515625 45.63390625 19.6903125 45.2678125 19.015625 44.890625 C9.55089984 39.27595753 1.14251274 31.91776658 -5.0625 22.75 C-5.701875 21.8425 -6.34125 20.935 -7 20 C-15.83240995 20 -28.81035675 33.25437707 -35 39 Z " fill="#FFFFFF" transform="translate(137,339)"/>
<path d="M0 0 C6.33349238 5.30245874 9.86577058 14.94346321 11 23 C12.38033982 42.59058265 7.86892067 58.37555992 -4.890625 73.60546875 C-14.87711014 84.94197874 -26.44264939 93.59985475 -39.5 101.125 C-40.14590088 101.50333984 -40.79180176 101.88167969 -41.45727539 102.27148438 C-45.59489206 104.57188572 -49.1706705 105.89844868 -54 106 C-58.51004628 104.20242441 -60.07014486 101.65959316 -62.25 97.4375 C-69.4879646 84.52147696 -79.35804466 76.28693848 -93.125 70.921875 C-96.10626334 69.45608719 -97.67381305 67.83876645 -98.875 64.75 C-99.21668401 57.23295172 -93.58838534 51.39640288 -89 46 C-88.49855469 45.39027344 -87.99710937 44.78054687 -87.48046875 44.15234375 C-80.10003269 35.94978317 -67.98015194 29.21713948 -57 28 C-53.4774196 27.96063341 -49.95915748 28.0464557 -46.4375 28.125 C-38.52527991 28.28599444 -32.44799348 28.10849178 -26 23 C-25.09701172 22.32517578 -25.09701172 22.32517578 -24.17578125 21.63671875 C-19.25439187 17.35676888 -16.20297722 11.67577805 -13.01928711 6.06689453 C-9.69274252 0.22497784 -6.82118707 -1.30366317 0 0 Z M-10.6875 32.5625 C-18.12434079 39.28196065 -28.36800648 45.35327148 -38.6328125 44.95703125 C-52.36529806 44.30777435 -52.36529806 44.30777435 -65 49 C-66.22783203 49.72316406 -66.22783203 49.72316406 -67.48046875 50.4609375 C-71.43599742 52.93864544 -74.33397985 55.12215251 -77 59 C-76.34515625 59.36609375 -75.6903125 59.7321875 -75.015625 60.109375 C-64.54638847 66.31993904 -55.56208422 74.68815337 -49 85 C-36.2780446 82.59076133 -22.30731848 68.669516 -14.71875 58.62109375 C-9.64147839 50.87825454 -5.82646817 43.57667399 -5.9375 34.25 C-5.94652344 33.26515625 -5.95554687 32.2803125 -5.96484375 31.265625 C-5.97644531 30.51796875 -5.98804688 29.7703125 -6 29 C-7.90929902 29 -9.41039742 31.31844628 -10.6875 32.5625 Z " fill="#FFFFFF" transform="translate(431,68)"/>
<path d="M0 0 C2.78801278 2.22810925 5.48416136 4.52462959 8.15234375 6.89453125 C9.18294922 7.79945312 9.18294922 7.79945312 10.234375 8.72265625 C19.21807476 17.13915704 26.16621135 27.78248948 32.27734375 38.39453125 C32.65560303 39.04035156 33.0338623 39.68617187 33.42358398 40.3515625 C35.72422975 44.4891912 37.05079001 48.06508685 37.15234375 52.89453125 C35.35476816 57.40457753 32.81193691 58.96467611 28.58984375 61.14453125 C15.67382071 68.38249585 7.43928223 78.25257591 2.07421875 92.01953125 C0.60843094 95.00079459 -1.0088898 96.5683443 -4.09765625 97.76953125 C-11.81707115 98.12041375 -18.14692207 92.06999994 -23.6640625 87.3359375 C-32.67469829 78.93004237 -39.16100285 67.16579525 -40.84765625 54.89453125 C-40.84275113 52.5433426 -40.76306416 50.20002473 -40.67993164 47.8503418 C-40.40984556 39.17312533 -40.29116764 32.03654746 -45.84765625 24.89453125 C-46.29753906 24.29125 -46.74742188 23.68796875 -47.2109375 23.06640625 C-51.49613912 18.1500509 -57.17168326 15.09761912 -62.78076172 11.91381836 C-67.75394485 9.08195404 -67.75394485 9.08195404 -68.84765625 6.89453125 C-69.19233483 3.89090365 -69.40257246 1.79803222 -68.84765625 -1.10546875 C-52.35665311 -20.80305583 -17.53817092 -12.96717987 0 0 Z M-39.84765625 4.89453125 C-38.98140625 5.84328125 -38.11515625 6.79203125 -37.22265625 7.76953125 C-33.48476819 12.15978657 -30.53815432 16.80072311 -27.84765625 21.89453125 C-27.43 22.68085937 -27.01234375 23.4671875 -26.58203125 24.27734375 C-23.42334938 31.37325583 -23.72044787 37.9416408 -23.91552734 45.53710938 C-24.11818795 58.15452031 -18.86250507 66.54387429 -10.84765625 75.89453125 C-8.97933395 73.5778116 -7.12054552 71.2600332 -5.33984375 68.875 C0.82276931 60.69162313 7.5757859 53.55140983 16.15234375 47.89453125 C13.52210561 34.14123783 -1.66557613 19.51361734 -12.77734375 11.73828125 C-21.5405522 6.47589653 -29.62529048 3.97267462 -39.84765625 4.89453125 Z " fill="#FFFFFF" transform="translate(136.84765625,82.10546875)"/>
<path d="M0 0 C11.73854808 9.93946863 20.99343338 21.86049201 23.125 37.5 C23.22414843 40.82197301 23.07809635 44.11834218 22.9375 47.4375 C22.78824366 55.22096836 23.17802128 61.14141553 28.125 67.5 C28.57488281 68.10328125 29.02476562 68.7065625 29.48828125 69.328125 C33.77348287 74.24448035 39.44902701 77.29691213 45.05810547 80.48071289 C50.0312886 83.31257721 50.0312886 83.31257721 51.125 85.5 C51.46967858 88.5036276 51.67991621 90.59649903 51.125 93.5 C45.82254126 99.83349238 36.18153679 103.36577058 28.125 104.5 C7.93848795 105.92232862 -7.80319917 101.02544936 -23.32421875 87.765625 C-24.16597656 87.01796875 -25.00773437 86.2703125 -25.875 85.5 C-26.56207031 84.89671875 -27.24914062 84.2934375 -27.95703125 83.671875 C-36.94073101 75.25537421 -43.8888676 64.61204177 -50 54 C-50.56738892 53.03126953 -50.56738892 53.03126953 -51.14624023 52.04296875 C-53.446886 47.90534005 -54.77344626 44.3294444 -54.875 39.5 C-53.07742441 34.98995372 -50.53459316 33.42985514 -46.3125 31.25 C-33.39647696 24.0120354 -25.16193848 14.14195534 -19.796875 0.375 C-18.46629256 -2.33126938 -16.86240542 -4.04156177 -14.125 -5.3125 C-8.26752737 -5.80062272 -4.49906951 -3.45813572 0 0 Z M-7.875 16.5 C-8.83124688 18.07208225 -9.76369912 19.65863498 -10.6875 21.25 C-16.51487166 30.54976426 -24.60951103 38.60377975 -33.875 44.5 C-31.46576133 57.2219554 -17.544516 71.19268152 -7.49609375 78.78125 C0.24674546 83.85852161 7.54832601 87.67353183 16.875 87.5625 C17.85984375 87.55347656 18.8446875 87.54445313 19.859375 87.53515625 C20.60703125 87.52355469 21.3546875 87.51195312 22.125 87.5 C21.3 86.63375 20.475 85.7675 19.625 84.875 C16.59677584 81.34207181 14.19695279 77.51868252 11.875 73.5 C11.53404297 72.91911621 11.19308594 72.33823242 10.84179688 71.73974609 C6.62834073 64.27824299 5.93796566 58.07879551 6.25 49.75 C6.50687733 35.93654729 2.20982454 26.81250354 -6.875 16.5 C-7.205 16.5 -7.535 16.5 -7.875 16.5 Z " fill="#FFFFFF" transform="translate(392.875,337.5)"/>
<path d="M0 0 C9.32806574 1.57387117 16.89109941 6.27742677 23.84765625 12.48046875 C24.76998047 13.26357422 24.76998047 13.26357422 25.7109375 14.0625 C36.69181654 24.06946515 42.22046612 39.29207388 42.97216797 53.90014648 C43.46375913 70.54859881 41.87353572 85.82858246 37.41015625 101.85546875 C37.21719971 102.56364746 37.02424316 103.27182617 36.82543945 104.00146484 C35.59744458 108.10746319 34.46547671 111.06031441 30.84765625 113.48046875 C25.87659086 113.9981655 21.49694224 113.10023914 16.66015625 111.98046875 C4.34874224 109.35570028 -7.4488466 109.65240763 -18.96484375 115.23046875 C-22.90827997 116.77691433 -25.09820151 116.6278675 -29.15234375 115.48046875 C-32.5042662 113.30624878 -33.38970759 111.16116748 -34.23828125 107.40625 C-35.23278391 102.63282913 -35.49985854 98.03402467 -35.46484375 93.16796875 C-35.4592041 92.33910156 -35.45356445 91.51023437 -35.44775391 90.65625 C-35.12515316 74.25152281 -28.79330881 61.91281436 -17.15234375 50.48046875 C-16.04225305 49.58662948 -14.91956168 48.70787019 -13.77734375 47.85546875 C-9.15893077 43.67690462 -8.32353748 39.74640796 -7.87109375 33.7578125 C-7.63241498 26.66431345 -8.10486627 20.27577523 -10.46875 13.5234375 C-11.88352758 9.29527365 -11.68061917 6.58504463 -9.77734375 2.60546875 C-6.37510051 -0.14872815 -4.29299212 -0.2339333 0 0 Z M9.84765625 24.48046875 C9.81027344 25.44726562 9.77289063 26.4140625 9.734375 27.41015625 C9.17237607 38.53993905 7.84653164 49.35871172 0.84765625 58.48046875 C-1.59346005 60.59501431 -4.13536474 62.51474497 -6.71484375 64.45703125 C-13.2019647 69.84217332 -16.69432945 77.26823434 -18.15234375 85.48046875 C-18.35876561 88.83367722 -18.34496069 92.12750717 -18.15234375 95.48046875 C-16.88003906 95.26390625 -16.88003906 95.26390625 -15.58203125 95.04296875 C-3.31380687 93.10162335 8.5004528 93.06935978 20.84765625 94.48046875 C26.93493808 78.15548567 29.03052681 57.12665872 22.84765625 40.48046875 C19.94956081 34.53027279 16.88591809 28.87730917 11.84765625 24.48046875 C11.18765625 24.48046875 10.52765625 24.48046875 9.84765625 24.48046875 Z " fill="#FFFFFF" transform="translate(252.15234375,-0.48046875)"/>
<path d="M0 0 C3.35022444 2.17311856 4.23712752 4.31728201 5.0859375 8.0703125 C6.08504932 12.86489254 6.3474932 17.48744978 6.3125 22.375 C6.30686035 23.20717041 6.3012207 24.03934082 6.29541016 24.89672852 C5.98270719 40.7842066 -0.61159414 53.9993714 -12 65 C-13.11126472 65.89237925 -14.23414383 66.77077685 -15.375 67.625 C-19.99341298 71.80356413 -20.82880627 75.73406079 -21.28125 81.72265625 C-21.51992877 88.8161553 -21.04747748 95.20469352 -18.68359375 101.95703125 C-17.26881617 106.1851951 -17.47172458 108.89542412 -19.375 112.875 C-22.77724324 115.6291969 -24.85935163 115.71440205 -29.15234375 115.48046875 C-38.48040949 113.90659758 -46.04344316 109.20304198 -53 103 C-53.61488281 102.47792969 -54.22976562 101.95585937 -54.86328125 101.41796875 C-65.44437524 91.77533099 -71.39899185 76.73497874 -72.12451172 62.56884766 C-72.60683853 45.5615849 -71.11759885 29.99702582 -66.5625 13.625 C-66.36954346 12.91674072 -66.17658691 12.20848145 -65.9777832 11.47875977 C-64.74967065 7.37286861 -63.61776566 4.42011768 -60 2 C-55.02893461 1.48230325 -50.64928599 2.38022961 -45.8125 3.5 C-33.50108599 6.12476847 -21.70349715 5.82806112 -10.1875 0.25 C-6.24406378 -1.29644558 -4.05414224 -1.14739875 0 0 Z M-18.8125 21 C-29.14407788 22.9243758 -39.61427642 22.18693984 -50 21 C-56.08728183 37.32498308 -58.18287056 58.35381003 -52 75 C-49.10190456 80.95019596 -46.03826184 86.60315958 -41 91 C-40.34 91 -39.68 91 -39 91 C-38.96261719 90.03320312 -38.92523438 89.06640625 -38.88671875 88.0703125 C-38.32471982 76.9405297 -36.99887539 66.12175703 -30 57 C-27.5588837 54.88545444 -25.01697901 52.96572378 -22.4375 51.0234375 C-15.95037905 45.63829543 -12.4580143 38.21223441 -11 30 C-10.79357814 26.64679153 -10.80738306 23.35296158 -11 20 C-13.83521528 20 -16.05507432 20.40469371 -18.8125 21 Z " fill="#FFFFFF" transform="translate(289,397)"/>
<path d="M0 0 C5.26010791 4.1416258 9.71506907 9.00669614 14.22265625 13.93359375 C18.86961247 18.07817633 24.28206312 18.35456144 30.28515625 18.30859375 C30.98817871 18.30730469 31.69120117 18.30601562 32.41552734 18.3046875 C37.44001157 18.21243165 41.73479845 17.34517211 46.4921875 15.6796875 C50.72035135 14.26490992 53.43058037 14.46781833 57.41015625 16.37109375 C60.16435315 19.77333699 60.2495583 21.85544538 60.015625 26.1484375 C57.7091541 39.81849675 48.4680844 50.98640842 37.53515625 58.99609375 C14.16119369 73.18260282 -13.08991292 70.61710706 -38.6171875 64.47851562 C-50.18154359 61.55880196 -50.18154359 61.55880196 -53.46484375 56.99609375 C-53.9825405 52.02502836 -53.08461414 47.64537974 -51.96484375 42.80859375 C-49.34007528 30.49717974 -49.63678263 18.6995909 -55.21484375 7.18359375 C-56.76128933 3.24015753 -56.6122425 1.05023599 -55.46484375 -3.00390625 C-53.2965647 -6.34666979 -51.15904978 -7.23856226 -47.4140625 -8.0859375 C-31.06604721 -11.48725754 -13.91251805 -9.52771855 0 0 Z M-35.46484375 7.99609375 C-35.32046875 8.83269531 -35.17609375 9.66929687 -35.02734375 10.53125 C-33.08021692 22.74135785 -32.84661156 34.71486732 -34.46484375 46.99609375 C-17.13318681 53.45874549 3.88148728 55.12715406 21.16796875 47.89453125 C26.521719 45.41742293 31.58379494 42.4577302 35.53515625 37.99609375 C35.53515625 37.33609375 35.53515625 36.67609375 35.53515625 35.99609375 C34.08496094 35.94001953 34.08496094 35.94001953 32.60546875 35.8828125 C21.44381951 35.31920447 10.71016493 33.96358155 1.53515625 26.99609375 C-0.30236039 24.83335292 -1.93483548 22.57617431 -3.59765625 20.27734375 C-9.11953628 13.53094639 -16.92919072 9.41432533 -25.46484375 7.99609375 C-28.81797186 7.7939874 -32.1121262 7.80349083 -35.46484375 7.99609375 Z " fill="#FFFFFF" transform="translate(452.46484375,226.00390625)"/>
<path d="M0 0 C0.70817871 0.19295654 1.41635742 0.38591309 2.14599609 0.5847168 C6.25199444 1.81271167 9.20484566 2.94467954 11.625 6.5625 C12.14269675 11.53356539 11.24477039 15.91321401 10.125 20.75 C7.50023153 33.06141401 7.79693888 44.85900285 13.375 56.375 C14.92144558 60.31843622 14.77239875 62.50835776 13.625 66.5625 C11.53332645 69.92736615 9.21011549 70.88656756 5.5 71.8125 C-10.92736158 74.50989221 -27.3390122 73.0429479 -41.375 63.5625 C-46.03937655 59.84432555 -50.42310377 55.98054095 -54 51.1875 C-58.28079545 46.45609451 -62.21642688 45.7150194 -68.35546875 45.28125 C-75.4993446 45.05738368 -81.87999106 45.17686538 -88.58984375 47.87890625 C-91.34339265 48.9333287 -93.48015382 49.02304371 -96.375 48.5625 C-99.25 47.1875 -99.25 47.1875 -101.375 44.5625 C-103.21502082 36.6978949 -100.03072867 29.41003238 -96.375 22.5625 C-87.64784968 8.69652005 -74.67936176 0.07506833 -58.9453125 -3.89453125 C-39.3190481 -8.04050504 -19.11045235 -5.32213177 0 0 Z M-75.71875 23.66015625 C-77.59387956 25.39351584 -77.59387956 25.39351584 -77.375 27.5625 C-75.92480469 27.61857422 -75.92480469 27.61857422 -74.4453125 27.67578125 C-63.28366326 28.23938928 -52.55000868 29.5950122 -43.375 36.5625 C-41.53748336 38.72524083 -39.90500827 40.98241944 -38.2421875 43.28125 C-32.72030747 50.02764736 -24.91065303 54.14426842 -16.375 55.5625 C-13.02187189 55.76460635 -9.72771755 55.75510292 -6.375 55.5625 C-6.5915625 54.30759766 -6.5915625 54.30759766 -6.8125 53.02734375 C-8.75962683 40.8172359 -8.99323219 28.84372643 -7.375 16.5625 C-29.094101 8.46385217 -57.50478538 7.35865792 -75.71875 23.66015625 Z " fill="#FFFFFF" transform="translate(101.375,222.4375)"/>
</svg>
