<?xml version="1.0" encoding="UTF-8"?>
<!DOCTYPE svg PUBLIC "-//W3C//DTD SVG 1.1//EN" "http://www.w3.org/Graphics/SVG/1.1/DTD/svg11.dtd">
<svg xmlns="http://www.w3.org/2000/svg" version="1.1" width="512px" height="512px" style="shape-rendering:geometricPrecision; text-rendering:geometricPrecision; image-rendering:optimizeQuality; fill-rule:evenodd; clip-rule:evenodd" xmlns:xlink="http://www.w3.org/1999/xlink">
<g><path style="opacity:0.99" fill="#fefffe" d="M 79.5,79.5 C 196.834,79.3333 314.167,79.5 431.5,80C 444,83.1667 451.833,91 455,103.5C 455.5,151.499 455.667,199.499 455.5,247.5C 469.21,247.267 479.043,253.267 485,265.5C 485.667,267.5 486.333,269.5 487,271.5C 487.5,295.498 487.667,319.498 487.5,343.5C 491.514,343.334 495.514,343.501 499.5,344C 500.416,344.374 501.25,344.874 502,345.5C 503.133,352.733 503.633,360.066 503.5,367.5C 503.633,374.934 503.133,382.267 502,389.5C 501.25,390.126 500.416,390.626 499.5,391C 495.514,391.499 491.514,391.666 487.5,391.5C 487.667,403.505 487.5,415.505 487,427.5C 486.5,429.333 485.333,430.5 483.5,431C 472.833,431.667 462.167,431.667 451.5,431C 450.584,430.626 449.75,430.126 449,429.5C 445.467,417.003 442.634,404.336 440.5,391.5C 317.167,391.5 193.833,391.5 70.5,391.5C 68.3664,404.336 65.5331,417.003 62,429.5C 61.2496,430.126 60.4162,430.626 59.5,431C 48.8333,431.667 38.1667,431.667 27.5,431C 26.09,430.632 25.09,429.799 24.5,428.5C 23.5199,416.217 23.1866,403.884 23.5,391.5C 19.4862,391.666 15.4862,391.499 11.5,391C 10.5838,390.626 9.75044,390.126 9,389.5C 7.86672,382.267 7.36672,374.934 7.5,367.5C 7.36672,360.066 7.86672,352.733 9,345.5C 9.75044,344.874 10.5838,344.374 11.5,344C 15.4862,343.501 19.4862,343.334 23.5,343.5C 23.181,318.967 23.5143,294.467 24.5,270C 29.6184,255.389 39.9517,247.889 55.5,247.5C 55.3333,199.499 55.5,151.499 56,103.5C 59.349,90.9853 67.1824,82.9853 79.5,79.5 Z M 87.5,95.5 C 201.202,95.01 314.869,95.51 428.5,97C 435.053,99.6008 438.553,104.434 439,111.5C 439.5,156.832 439.667,202.165 439.5,247.5C 434.167,247.5 428.833,247.5 423.5,247.5C 423.667,234.163 423.5,220.829 423,207.5C 419.833,195 412,187.167 399.5,184C 362.167,183.333 324.833,183.333 287.5,184C 275,187.167 267.167,195 264,207.5C 263.5,220.829 263.333,234.163 263.5,247.5C 258.167,247.5 252.833,247.5 247.5,247.5C 247.667,234.163 247.5,220.829 247,207.5C 243.833,195 236,187.167 223.5,184C 186.167,183.333 148.833,183.333 111.5,184C 99,187.167 91.1667,195 88,207.5C 87.5001,220.829 87.3334,234.163 87.5,247.5C 82.1667,247.5 76.8333,247.5 71.5,247.5C 71.3333,202.165 71.5,156.832 72,111.5C 73.3459,102.322 78.5125,96.9891 87.5,95.5 Z M 119.5,199.5 C 153.208,199.035 186.874,199.535 220.5,201C 225,202.833 228.167,206 230,210.5C 231.394,222.78 231.894,235.114 231.5,247.5C 188.833,247.5 146.167,247.5 103.5,247.5C 103.106,235.114 103.606,222.78 105,210.5C 107.821,204.023 112.655,200.356 119.5,199.5 Z M 295.5,199.5 C 329.208,199.035 362.874,199.535 396.5,201C 401,202.833 404.167,206 406,210.5C 407.394,222.78 407.894,235.114 407.5,247.5C 364.833,247.5 322.167,247.5 279.5,247.5C 279.106,235.114 279.606,222.78 281,210.5C 283.821,204.023 288.655,200.356 295.5,199.5 Z M 55.5,263.5 C 188.834,263.333 322.167,263.5 455.5,264C 462.566,264.447 467.399,267.947 470,274.5C 471.447,297.456 471.947,320.456 471.5,343.5C 327.5,343.5 183.5,343.5 39.5,343.5C 39.3334,322.164 39.5,300.831 40,279.5C 41.3459,270.322 46.5125,264.989 55.5,263.5 Z M 23.5,359.5 C 178.167,359.5 332.833,359.5 487.5,359.5C 487.5,364.833 487.5,370.167 487.5,375.5C 332.833,375.5 178.167,375.5 23.5,375.5C 23.5,370.167 23.5,364.833 23.5,359.5 Z M 39.5,391.5 C 44.1785,391.334 48.8452,391.501 53.5,392C 51.518,399.742 49.8513,407.575 48.5,415.5C 45.5,415.5 42.5,415.5 39.5,415.5C 39.5,407.5 39.5,399.5 39.5,391.5 Z M 457.5,392.5 C 461.97,391.514 466.637,391.181 471.5,391.5C 471.5,399.5 471.5,407.5 471.5,415.5C 468.5,415.5 465.5,415.5 462.5,415.5C 461.196,407.635 459.529,399.968 457.5,392.5 Z"/></g>
</svg>
