<?xml version="1.0" encoding="UTF-8"?>
<!DOCTYPE svg PUBLIC "-//W3C//DTD SVG 1.1//EN" "http://www.w3.org/Graphics/SVG/1.1/DTD/svg11.dtd">
<!-- Creator: CorelDRAW -->
<svg xmlns="http://www.w3.org/2000/svg" xml:space="preserve" width="500px" height="500px" version="1.1" style="shape-rendering:geometricPrecision; text-rendering:geometricPrecision; image-rendering:optimizeQuality; fill-rule:evenodd; clip-rule:evenodd"
viewBox="0 0 500 500"
 xmlns:xlink="http://www.w3.org/1999/xlink"
 xmlns:xodm="http://www.corel.com/coreldraw/odm/2003">
 <defs>
  <style type="text/css">
   <![CDATA[
    .fil0 {fill:#E5E5E5}
   ]]>
  </style>
 </defs>
 <g id="Camada_x0020_1">
  <metadata id="CorelCorpID_0Corel-Layer"/>
  <g id="_2470614671680">
   <path class="fil0" d="M288.55 141.97c0,-6.79 13.44,-19.68 16.88,-26.37 2.31,-4.48 3.89,-10.91 4.7,-16.93 2.15,-16.01 1.45,-20.7 20.56,-22.69 6.67,-0.7 12.91,-1.57 17.94,-3.69 16.3,-6.85 19.41,-16.83 31.23,-16.83 6.1,0 16.1,8.66 20.65,11.8 23.41,16.1 41.63,1.13 46.15,21.13 2.68,11.89 1.4,17.35 6.45,27.19 9.96,19.38 25.55,19.95 8.62,40.97 -5.72,7.1 -9.66,11.13 -12.24,21.41 -2.14,8.52 -1.34,21.44 -7.42,26.22 -10.89,8.58 -20.82,-3.37 -48.48,17.6 -21.73,16.48 -21.78,0.74 -42.54,-8.95 -8.2,-3.83 -17.67,-3.64 -26.76,-5.68 -23.19,-5.21 -5.29,-21.02 -22.85,-44.43 -3.23,-4.31 -12.89,-15.03 -12.89,-20.75zm-283.55 -76.82l0 -25.31c0,-19.2 17.41,-34.84 32.44,-34.84l315.99 0c19.4,0 33.64,16.82 33.64,36.04 8.93,4.29 6.45,2.14 15.96,9.28 26.76,20.1 36.85,3.32 52.85,21.64 9.79,11.21 5.21,26 12.03,38.43 2.87,5.22 7.49,9.17 10.99,14.24 17.45,25.26 -4.03,35.82 -11.78,50.53 -2.86,5.45 -3.38,14.6 -4.66,21.77 -5.47,30.69 -30.93,22.91 -47.64,29.26 -10.21,3.88 -19.77,17.9 -33.76,17.9 -14.26,0 -18.15,-4.85 -28.83,-12.01l0 92.51c4.48,-3 7.95,-5.65 12.53,-9.1 3.64,-2.74 8.77,-7.72 13.9,-7.72 10.38,0 17.65,13.28 26.43,15.62 0,-14.26 -2.02,-67.67 2.4,-76.89 7.61,-1.77 4.41,-1.77 12.02,0 2.83,12.14 1.2,71.96 1.2,88.91 0,3.82 -6.12,8.41 -10.81,8.41 -6.91,0 -16.79,-10.02 -22.83,-13.22l0.01 123.76c0.13,23 -12.69,39.64 -33.65,39.64l-315.99 0c-15.03,0 -32.44,-15.64 -32.44,-34.84l0 -359.24c0,-10.14 14.99,-15.44 15.71,1.11l-0.13 352.16c-0.02,17.06 7.28,26.39 24.07,26.39l305.17 0c28.62,0 21.63,-35.93 21.63,-63.67 0,-28.44 0,-56.88 0,-85.31 -3.63,0.97 -7.95,5.03 -10.81,7.22 -18.55,14.14 -24.03,-1.97 -24.03,-6.02l0 -108.13c-28.66,0 -37.73,-8.38 -41.54,-31.75 -2.67,-16.39 -2.28,-15.69 -10.95,-26.29 -25.67,-31.4 -0.61,-40.31 7.22,-56.92 2.42,-5.14 3.33,-14.61 4.38,-20.84 5.05,-29.9 27.87,-24.16 44.56,-28.73 11.83,-3.24 18.61,-15.17 31.17,-18.1 -0.28,-12.67 -9.01,-21.62 -21.63,-21.62l-305.17 0c-29.96,0 -24.03,28.07 -24.03,51.66 -10.53,7.05 -14.38,2.25 -15.62,-5.93z"/>
   <path class="fil0" d="M173.21 156.39c11.04,7.39 17.72,10.69 33.16,6.72 11.95,-3.07 8.06,-9.49 19.86,-4.52 13.79,5.8 14.06,15.18 16.17,25.94 1.62,8.27 2.37,17.51 -7.92,17.51l-76.89 0c-13.39,0 -8.27,-16.9 -5.8,-26.22 2.93,-11.11 9.79,-16.72 21.42,-19.43zm13.21 -20.43c4.11,2.31 10.85,1.2 15.62,1.2 4.6,0 0.44,0.37 3.61,-1.2 0,12.69 1.02,13.22 -12.02,13.22 -8.71,0 -7.21,-4.94 -7.21,-13.22zm13.22 -54.07c-5.78,0 -3.29,-2.4 -10.81,-2.4 -9.79,0 -10.32,18.02 10.81,18.02 6.07,0 11.85,-2.44 16.82,-3.6 0,16.06 -3.51,25.57 -17.51,28.24 -6.23,1.2 -12.81,-1.86 -16.48,-5.07 -8.87,-7.75 -6.86,-18.67 -6.86,-32.78 0,-24.54 34.71,-27.21 39.65,-6.01 -4.97,1.16 -9.74,3.6 -15.62,3.6zm-39.65 3.61c0,10.12 -1.07,22.46 3.23,31.61 5.79,12.33 7.58,1.53 7.58,21.26 0,6.76 -28.27,4.26 -34.78,34.9 -3.2,15.07 -7.22,23.39 3.31,36.22 2.62,3.18 10.64,8.17 15.85,8.17l80.5 0c12.95,0 24.03,-13.09 24.03,-24.03 0,-10.27 -4.46,-28.16 -10.08,-35.57 -6.65,-8.77 -16.3,-14.48 -28.36,-17.29 0,-20.17 -0.12,-11.11 5.22,-20.01 7.65,-12.75 10.12,-48.09 -5.04,-61.88 -24.22,-22.02 -61.46,-6.98 -61.46,26.62z"/>
   <path class="fil0" d="M343.82 131.16c25.25,-5.89 21.34,-3.87 34.84,-24.03 13.48,9.87 -1.18,15.63 34.84,24.03 -11.83,22.37 -13.21,1.01 -13.21,39.64 -1.52,-0.72 -19.53,-7.2 -20.43,-7.2 -4.35,0 -14.47,5.26 -22.83,7.2 6.02,-25.83 -6.51,-29.63 -13.21,-39.64zm-19.23 -3.61c0,12.04 18.81,19.11 18.06,31.08 -0.51,8.23 -5.89,30.2 8.38,30.2 4.31,0 24.64,-8.95 27.65,-9.05 9.08,-0.3 37.51,21.59 38.53,-2.94l-1.31 -21.65c0,-5.65 18.03,-17.59 18.03,-28.84 0,-9.86 -25.08,-10.27 -32,-14.86 -10.19,-6.75 -16.61,-42.57 -35.29,-13.98 -10.8,16.55 -8.55,14.64 -28.6,19.46 -6.17,1.48 -13.45,2.37 -13.45,10.58z"/>
   <path class="fil0" d="M71.08 254.91c0,5.61 2.8,8.41 8.41,8.41l231.89 0c8.39,0 11.28,-15.62 -2.41,-15.62l-228.28 0c-4.39,0 -9.61,3.31 -9.61,7.21z"/>
   <path class="fil0" d="M71.08 411.1c0,3.89 5.22,7.21 9.61,7.21l228.28 0c11.52,0 13.57,-15.62 1.2,-15.62l-230.68 0c-5.61,0 -8.41,2.8 -8.41,8.41z"/>
   <path class="fil0" d="M71.08 448.35c0,5.57 5.06,8.4 9.61,8.4l228.28 0c13.69,0 10.8,-15.61 2.41,-15.61l-233.09 0c-2.89,0 -7.21,4.31 -7.21,7.21z"/>
   <path class="fil0" d="M71.08 293.35c0,5.61 2.8,8.42 8.41,8.42l230.68 0c11.54,0 12.32,-15.62 -3.6,-15.62l-223.47 0c-5.41,0 -12.02,2.27 -12.02,7.2z"/>
   <path class="fil0" d="M71.08 333c0,3.07 2.6,7.21 6.01,7.21l233.08 0c12.32,0 9.15,-14.42 2.41,-14.42l-235.49 0c-3.41,0 -6.01,4.15 -6.01,7.21z"/>
   <path class="fil0" d="M71.08 371.45c0,3.06 2.6,7.21 6.01,7.21l235.49 0c6.74,0 9.91,-14.42 -2.41,-14.42l-230.68 0c-4.85,0 -8.41,2.62 -8.41,7.21z"/>
   <path class="fil0" d="M43.45 448.35c0,10.03 15.62,11.42 15.62,1.2 0,-12.91 -15.62,-8.86 -15.62,-1.2z"/>
   <path class="fil0" d="M43.45 409.9c0,9.42 15.62,12.24 15.62,-1.2 0,-7.51 -15.62,-8.74 -15.62,1.2z"/>
   <path class="fil0" d="M43.45 294.56c0,8.33 15.62,11.63 15.62,-1.21 0,-8.4 -15.62,-9.33 -15.62,1.21z"/>
   <path class="fil0" d="M43.45 256.11c0,8.06 15.62,10.73 15.62,0 0,-11.08 -15.62,-10 -15.62,0z"/>
   <path class="fil0" d="M43.45 371.45c0,8.9 15.62,11.31 15.62,-1.2 0,-8.11 -15.62,-8.4 -15.62,1.2z"/>
   <path class="fil0" d="M43.45 333c0,8.34 15.62,11.64 15.62,-1.2 0,-7.74 -15.62,-8.99 -15.62,1.2z"/>
  </g>
 </g>
</svg>
