<?xml version="1.0" encoding="UTF-8"?>
<!DOCTYPE svg PUBLIC "-//W3C//DTD SVG 1.1//EN" "http://www.w3.org/Graphics/SVG/1.1/DTD/svg11.dtd">
<!-- Creator: CorelDRAW -->
<svg xmlns="http://www.w3.org/2000/svg" xml:space="preserve" width="500px" height="500px" version="1.1" style="shape-rendering:geometricPrecision; text-rendering:geometricPrecision; image-rendering:optimizeQuality; fill-rule:evenodd; clip-rule:evenodd"
viewBox="0 0 500 500"
 xmlns:xlink="http://www.w3.org/1999/xlink"
 xmlns:xodm="http://www.corel.com/coreldraw/odm/2003">
 <defs>
  <style type="text/css">
   <![CDATA[
    .fil0 {fill:#595959}
   ]]>
  </style>
 </defs>
 <g id="Camada_x0020_1">
  <metadata id="CorelCorpID_0Corel-Layer"/>
  <path class="fil0" d="M377.06 442.11l-264.05 0c-36.17,0 -66.82,-28.7 -66.82,-64.67l0 -67.89 208.01 0 0 66.82c0,6.61 5.13,9.7 11.85,9.7l108.86 0c16.01,0 11.85,-12.99 11.85,-33.41l-0.06 -34.56c-0.07,-4.57 -1.06,-8.55 3.3,-8.55l53.89 0 0 60.35c0,42.2 -28.36,72.21 -66.83,72.21zm-292.12 -431.11l4.68 0 0.76 0c24.01,0 43.82,21.65 49.58,46.35 34.14,0.76 59.56,61.43 31.25,61.43l-80.83 0c-25.92,0 -8.18,-52.75 29.1,-61.43 -3.07,-13.17 -16.36,-26.95 -32.34,-26.95l-8.62 0c-15.17,0 -32.33,16.34 -32.33,35.57l0 186.45 414.94 0c13.79,0 25.87,14.47 25.87,22.64l0 26.63c-1.03,8.96 -5.69,7.86 -23.71,7.86l0 67.89c0,18.75 -8.41,38.02 -16.77,48.99 -7.91,10.38 -23.73,25.5 -37.12,28.62 5.12,7.64 8.75,9.61 11.23,21.1 2.74,12.74 -0.95,18.59 -5.76,19.85l-4.31 0c-3.91,-0.93 -7.57,-4.26 -8.43,-8.9 -1.36,-7.28 0.04,-8.04 -3.51,-13.74 -4.14,-6.66 -11.8,-11.85 -22.63,-11.85l-262.98 0c-10.66,0 -19.09,5.77 -22.7,12.87 -3.03,5.98 -1.88,6.65 -3.42,13.82 -2.77,12.9 -19.15,7.13 -19.15,0.26 0,-21.63 5.38,-21.17 11.86,-33.41 -5.28,-1.23 -14.42,-7.3 -18.64,-10.46 -17.36,-12.98 -28.89,-30.98 -33.41,-53.9 -2.2,-11.17 -0.76,-42.85 -0.76,-57.43 0,-20.88 2.55,-23.52 -5.25,-23.85 -15.97,-0.67 -19.05,1.73 -19.54,-10.32l0 -20.8c0,-12.63 12.97,-24.88 24.79,-25.87 0,-48.86 0,-97.72 0,-146.57 0,-34.8 -5.61,-65.81 24.18,-85.75 12.52,-8.39 20.97,-9.06 33.97,-9.1zm188.66 260.82l93.76 0 0 93.77 -93.76 0 0 -93.77zm113.16 3.24c0,-2.49 0.76,-3.24 3.24,-3.24l66.82 0c12.62,0 11.86,9.51 11.86,18.33l-81.92 0 0 -15.09zm-365.36 6.46c0,-5.32 4.37,-9.7 9.7,-9.7l223.1 0 0 18.33 -232.8 0 0 -8.63zm108.85 -205.85c14.48,0 30.37,11.98 31.26,22.63l-61.43 0c1.57,-6.75 5.79,-11.43 10.59,-15.27 5.05,-4.05 13.43,-7.36 19.58,-7.36z"/>
 </g>
</svg>
