<?xml version="1.0" encoding="UTF-8"?>
<!DOCTYPE svg PUBLIC "-//W3C//DTD SVG 1.1//EN" "http://www.w3.org/Graphics/SVG/1.1/DTD/svg11.dtd">
<!-- Creator: CorelDRAW -->
<svg xmlns="http://www.w3.org/2000/svg" xml:space="preserve" width="500px" height="500px" version="1.1" style="shape-rendering:geometricPrecision; text-rendering:geometricPrecision; image-rendering:optimizeQuality; fill-rule:evenodd; clip-rule:evenodd"
viewBox="0 0 500 500"
 xmlns:xlink="http://www.w3.org/1999/xlink"
 xmlns:xodm="http://www.corel.com/coreldraw/odm/2003">
 <defs>
  <style type="text/css">
   <![CDATA[
    .fil0 {fill:#595959}
   ]]>
  </style>
 </defs>
 <g id="Camada_x0020_1">
  <metadata id="CorelCorpID_0Corel-Layer"/>
  <path class="fil0" d="M389.56 468.73l-64.63 0 0 -91.46c0,-36.24 -20.58,-62.19 -53.65,-62.19 -22.42,0 -51.94,-2.78 -69.13,5.26 -7.79,3.64 -10.33,6.56 -15.94,12.11 -10.07,9.97 -14.93,22.84 -14.93,42.39l0 93.89 -64.63 0c-27.8,0 -21.95,-34.9 -21.95,-49.99 0,-19.07 2.25,-133.26 -2,-141.89 -7.57,-15.36 -32.65,-3.36 -43.34,-10.33 -7.29,-4.75 -7.09,-9.49 -7.09,-16.07 0,-6.92 16.89,-21.17 24.08,-28.35l173.77 -173.77c9.45,-9.45 8.14,-11.28 20.43,-11.28 6.62,0 11.7,7.43 15.55,11.28 4.76,4.77 8.64,8.64 13.41,13.41l174.38 174.38c5.03,5.03 10.06,7.5 10.06,16.77 0,28.5 -38.07,5.96 -49.57,22.38 -5.26,7.52 -2.87,57.72 -2.87,70.3 0,11.17 1.08,101.17 -0.97,107.56 -2.53,7.87 -10.91,15.6 -20.98,15.6zm102.44 -225.59l0 13.28c-0.3,12.83 -2.53,21.1 -16.19,32.71 -13.94,11.85 -23.01,5.7 -32.39,9.09 -3.7,1.33 -2.81,2.6 -2.75,8.22 0.33,30.1 2.08,143.51 -1.64,154.44 -3.33,9.79 -9.41,19.62 -16.51,24.96 -7.28,5.46 -16.55,12.16 -29.3,12.16l-85.36 0c-6.2,0 -11.55,-6.25 -12.92,-11.47 -2.02,-7.71 -0.49,-62.25 -0.49,-72.67 0,-34.93 9.55,-69.51 -28.05,-69.51 -23.15,0 -62.6,-6.16 -64.62,20.74 -1.66,22.2 -0.01,72.19 -0.01,97.55 0,10.77 3.57,35.36 -13.41,35.36l-85.37 0c-22.68,0 -41.15,-18.68 -46.4,-38.95 -3.74,-14.43 -1.15,-100.02 -1.15,-125.68 0,-28.32 3.95,-35.45 -7.21,-35.47 -15.55,-0.03 -22.65,-3.79 -31.08,-11.6 -12.66,-11.74 -14.15,-22.18 -14.15,-39.51 0,-13.6 9.24,-22.69 17.84,-30.94l48.74 -48.81c0.17,-0.18 0.42,-0.45 0.59,-0.63l16.48 -16.44c0.18,-0.18 0.45,-0.42 0.63,-0.59 0.71,-0.69 0.92,-0.85 1.87,-1.8l3.01 -3.08c0.18,-0.17 0.44,-0.42 0.62,-0.6l10.98 -10.97c0.17,-0.18 0.42,-0.44 0.6,-0.62l12.81 -12.8c0.17,-0.18 0.42,-0.44 0.6,-0.62 0.18,-0.17 0.43,-0.43 0.61,-0.61 0.18,-0.17 0.43,-0.43 0.61,-0.6 1.53,-1.52 2.13,-2.07 3.65,-3.67l9.15 -9.14c0.95,-0.95 0.96,-0.92 1.86,-1.8l18.32 -18.26c1.57,-1.43 2.24,-1.95 3.74,-3.58l7.79 -8.07c0.18,-0.17 0.43,-0.43 0.61,-0.6l26.79 -26.87c0.39,-0.41 1.22,-1.26 1.81,-1.84l6.15 -6.05c0.18,-0.18 0.43,-0.43 0.61,-0.61 0.18,-0.18 0.44,-0.43 0.62,-0.6 1.59,-1.58 2.13,-2.21 3.64,-3.68 8.02,-7.83 20.65,-23.91 34.62,-23.91l1.49 0c30.65,0.02 29.03,0.65 52.47,24.09l175.6 175.6c7.91,7.9 24.09,20.31 24.09,34.45z"/>
 </g>
</svg>
