<?xml version="1.0" encoding="UTF-8"?>
<!DOCTYPE svg PUBLIC "-//W3C//DTD SVG 1.1//EN" "http://www.w3.org/Graphics/SVG/1.1/DTD/svg11.dtd">
<!-- Creator: CorelDRAW -->
<svg xmlns="http://www.w3.org/2000/svg" xml:space="preserve" width="500px" height="500px" version="1.1" style="shape-rendering:geometricPrecision; text-rendering:geometricPrecision; image-rendering:optimizeQuality; fill-rule:evenodd; clip-rule:evenodd"
viewBox="0 0 500 500"
 xmlns:xlink="http://www.w3.org/1999/xlink"
 xmlns:xodm="http://www.corel.com/coreldraw/odm/2003">
 <defs>
  <style type="text/css">
   <![CDATA[
    .fil0 {fill:#E5E5E5}
   ]]>
  </style>
 </defs>
 <g id="Camada_x0020_1">
  <metadata id="CorelCorpID_0Corel-Layer"/>
  <g id="_2470680911968">
   <path class="fil0" d="M162.57 366.11c0,-4.05 10.95,-21.69 14.85,-21.69 23.88,0 18.75,-2.1 26.26,9.13 2,3 5.71,6.95 5.71,11.42l0 66.22 -46.82 0 0 -65.08zm331.13 -70.65l0 19.65c-0.6,5.6 -1.72,11.2 -3.41,16.75 -1.36,4.45 -4.28,12.27 -6.48,16.36 -23.66,44.07 -26.82,3.59 -4.81,70.27 2.34,7.08 5.14,14.89 7.71,21.98 1.9,5.28 6.99,15.81 6.99,21.55 0,18.05 -24.47,2.29 -44.53,2.29 -3.13,0 -19.14,21.69 -23.98,21.69l-1.16 0c-7.48,-0.02 -7.74,-0.49 -11.4,-13.69l-12.86 -46.52 -14.31 47.89c-1.83,7.75 -4.37,11.35 -7.29,12.32l-3.66 0c-9.09,-2.54 -20.23,-21.69 -25.82,-21.69 -9.88,0 -32.67,7.08 -37.34,6.42 -13.73,-1.95 -3.11,-17.68 -2.62,-23.55l-292.39 0.08c-4.48,-0.01 -5.62,0.45 -8.51,-1.77 -2.17,-1.67 -2.81,-2.87 -2.83,-6.15l0 -0.15 0 -101.63c0,-15.69 10.44,-27.59 23.21,-33.88 6.82,-3.36 11.66,-6.37 18.67,-9.87l91.71 -48.73c0,-26.16 3.63,-27.91 -5.87,-35.24 -11.33,-8.75 -22.49,-27.49 -24.7,-42.67 -2.23,-15.34 1.03,-38.22 -0.27,-54.53 -0.6,-7.46 -15.1,-37.29 -6.35,-62.33 5.9,-16.91 20.91,-25.61 40.62,-25.61 8.63,0 9.12,3.83 14.54,-0.21 11.72,-8.73 26.16,-13.49 42.55,-13.49 33.07,0 44.23,18.95 57.98,27.66 17.69,11.2 28.49,4.42 34.05,5.84 17.58,4.52 -10.44,46.48 -17.13,55.1 -10.31,13.26 -8.67,-0.29 -8.67,32.43 0,19.13 1.04,37.44 -5.3,50.66 -4.13,8.63 -16.6,28.03 -25.53,30.41l0 31.98 45.19 24.46c3.5,2.09 5.11,2.93 8.87,4.83l17.87 9.53c1.99,-4.14 3.21,-11.27 5.36,-16.34 6.29,-14.84 15.05,-24.43 26.3,-35.36 5.44,-5.28 18.56,-13 26.42,-15.83 67.72,-24.39 123.26,23.37 129.18,79.09zm-83.35 103.76c17.16,-0.38 36.58,-12.8 39.96,-13.7 0.53,6.29 20.55,56.41 22.84,66.23 -4.08,-0.95 -24.09,-5.86 -27.22,-5.44 -5.23,0.7 -13.42,12.34 -18.45,15.71l-17.13 -62.8zm-38.82 62.8c-5.21,-3.48 -11.96,-13.92 -17.77,-15.37 -2.79,-0.7 -25.11,3.76 -27.91,5.1 0.42,-5.05 3.44,-11.86 5.23,-16.47 2.35,-6.06 3.51,-11.04 5.85,-16.99l5.74 -15.96c2.01,-5.76 4.69,-11.09 6.02,-16.81 9.4,4.97 26.41,13.4 39.96,13.7 -4.4,18.92 -12.74,43.98 -17.12,62.8zm-224.94 -101.62l0 70.79 -62.8 0 0 -41.1c0,-8.2 -15.99,-10.36 -15.99,2.28l0 38.82 -46.82 0 0 -89.06c0,-18.45 11.54,-22.05 24,-28.53l58.22 -30.84 23.92 41.15c5.67,9.9 4.63,12.51 13.76,12.51 4.11,0 9.32,-8.72 15.98,-10.27 0.84,3.59 3.43,6.7 3.43,9.13 0,5.35 -13.7,18.04 -13.7,25.12zm69.65 -34.25c7.52,2 10.23,10.27 17.13,10.27 7.46,0 8.22,-5.52 11.19,-10.49l24.2 -43.17 35.4 18.27c0,24.73 5.66,41.58 18.25,59.38 3.66,5.17 7.32,10.17 12.58,13.69l-14.71 42.38c-1.66,4.56 -4.26,9.4 -4.7,14.71l-10.28 0 0 -38.82c0,-12.24 -17.13,-12.08 -17.13,0l0 38.82 -61.66 0 0 -69.65c0,-5.05 -6.88,-13.79 -9.59,-17.81 -6.38,-9.45 -6.03,-7.49 -0.68,-17.58zm-19.4 2.29l-21.71 -0.01c-1.29,-5.55 -4.41,-8.15 -5.71,-13.7 1.86,-2.77 13.97,-12.73 17.13,-14.85 5.67,4.93 10.74,9.43 17.13,13.71l-6.84 14.85zm196.38 -101.63c21.44,0 33.57,1.58 51.86,14.36 2.82,1.97 8.66,6.46 10.63,8.79 68.05,80.09 -34.56,173.53 -106.24,115.37 -7.02,-5.7 -4.01,-2.38 -9.77,-9.64 -12.88,-16.26 -16.98,-25.86 -18.74,-48.64 -2.25,-29.17 17.7,-59.9 41.8,-71.89 7.08,-3.52 20.52,-8.35 30.46,-8.35zm-162.14 87.92c-3.3,-0.89 -29.73,-22.92 -31.97,-26.26l28.27 -28.83 27.68 15.12c-4.87,7.27 -20.65,37.53 -23.98,39.97zm-113.04 -41.11c5.4,-1.26 21.39,-10.52 27.4,-13.7 2.93,1.96 27.31,25.06 28.55,29.69 -3.53,0.94 -13.28,9.97 -16.77,12.91 -5.46,4.59 -10.68,9.56 -16.34,13.35l-20.1 -35.86c-1.87,-3.11 -1.54,-3.69 -2.74,-6.39zm36.54 -51.38c12.31,5.91 49.65,6.31 62.8,0 0,29.04 2.89,21.66 -8.85,33.4 -5.55,5.55 -16.44,17.7 -21.98,21.41 -3.51,-2.35 -30.99,-28.18 -31.89,-33.2 -0.72,-4 -0.08,-16.71 -0.08,-21.61zm41.11 -12.56l-18.27 0c-28.89,0 -53.67,-24.62 -53.67,-53.67l0 -42.24c0,-3.77 9.16,-9.51 13.96,-13.44 3.32,-2.72 12.34,-10.78 15.73,-11.68 3.15,2.11 4.74,6.47 13.2,13.05 19.57,15.24 44.89,26.9 71.98,20.75 4.91,-1.12 6.54,-2.63 10.73,-2.98 0,25.71 2.27,47.64 -8.2,63.74 -8.75,13.47 -23.74,26.47 -45.46,26.47zm33.11 -102.77c-29.54,0 -41.75,-7.85 -60.26,-26.52 -14.52,-14.66 -6.09,-21.31 -40.58,6.76 -2.75,2.23 -5.53,5.2 -8.78,6.06 -3.51,-15.07 -8.79,-41.28 8.67,-49.56 21.48,-10.18 20.63,10.14 36.13,-3.84 18.79,-16.96 53.76,-15.66 72.52,3.45 7.15,7.29 20.51,16.17 32.48,17.79 6.39,0.87 10.5,-1.89 2.85,12.39 -2.76,5.16 -6.51,10.78 -10.17,14.96 -2.25,2.56 -3.11,4.42 -5.91,6.64 -2.89,2.28 -4.12,3.52 -7.03,5.53 -4.49,3.1 -12.8,6.34 -19.92,6.34z"/>
   <path class="fil0" d="M352.12 305.59c0,-36.76 42.06,-64.51 78.16,-35.92 32.38,25.64 11.1,81.6 -26.78,81.6 -14.96,0 -28.88,-2.73 -38.52,-14.01 -6.1,-7.16 -12.86,-19.03 -12.86,-31.67zm-15.99 -3.42c0,21.14 5.57,34.72 18.53,47.69 39.27,39.26 108.21,12.52 108.21,-46.55 0,-31.04 -27.98,-61.66 -60.51,-61.66 -21.78,0 -33.5,4.29 -47.68,18.55 -6.79,6.83 -7.88,8.02 -12.48,17.21 -3.31,6.61 -6.07,15.36 -6.07,24.76z"/>
   <path class="fil0" d="M374.95 288.47c0,5.85 4.6,13.33 15.99,5.7l0 26.27c-12.33,1.02 -8.06,15.98 -1.14,15.98 14.65,0 25.12,2.56 25.12,-7.99 0,-5.66 -2.68,-7.55 -8,-7.99 0,-9.52 -0.01,-19.03 0,-28.55 0.03,-17.07 0.89,-19.41 -13.7,-19.41 -6.24,0 -18.27,10.35 -18.27,15.99z"/>
  </g>
 </g>
</svg>
