<?xml version="1.0" encoding="UTF-8"?>
<!DOCTYPE svg PUBLIC "-//W3C//DTD SVG 1.1//EN" "http://www.w3.org/Graphics/SVG/1.1/DTD/svg11.dtd">
<!-- Creator: CorelDRAW -->
<svg xmlns="http://www.w3.org/2000/svg" xml:space="preserve" width="500px" height="500px" version="1.1" style="shape-rendering:geometricPrecision; text-rendering:geometricPrecision; image-rendering:optimizeQuality; fill-rule:evenodd; clip-rule:evenodd"
viewBox="0 0 500 500"
 xmlns:xlink="http://www.w3.org/1999/xlink"
 xmlns:xodm="http://www.corel.com/coreldraw/odm/2003">
 <defs>
  <style type="text/css">
   <![CDATA[
    .fil0 {fill:white}
   ]]>
  </style>
 </defs>
 <g id="Camada_x0020_1">
  <metadata id="CorelCorpID_0Corel-Layer"/>
  <g id="_2470621984288">
   <path class="fil0" d="M251.29 441.54c-39.76,0 -36.97,-46.46 -100.73,-45.81 -17.46,0.18 -28.63,-1.37 -38.03,-9.59 -25.71,-22.46 6.69,-59.84 -38.46,-104.43 -15.14,-14.95 -18.78,-14.34 -18.78,-38 0,-31.33 46.3,-33.03 45.84,-97.04 -0.55,-75.89 54.28,-27.35 102,-64.69 24.74,-19.36 18.51,-28.78 49.99,-28.78 29.55,0 32.97,46.37 97.05,45.84 79.95,-0.67 18.72,58.64 75.6,114.91 45.8,45.31 -6.27,62.43 -19.87,92.78 -5.65,12.62 -8.24,21.55 -8.07,39.55 0.32,35.19 -12.04,49.81 -47.62,49.48 -67,-0.64 -65.26,45.78 -98.92,45.78zm241.8 -202.17l0 15.27c-1.87,22.06 -11.85,43.62 -30.58,59.24 -24.91,20.76 -9.22,39.13 -18.62,69.31 -8.88,28.48 -30.94,51.6 -59.91,59.15 -38.73,10.09 -40.17,-11.03 -72.43,22.83 -0.26,0.27 -0.63,0.67 -0.9,0.93l-10.63 9.52c-9,6.85 -28.28,15.38 -43.23,15.38 -59.85,0 -65.26,-25.3 -81.6,-37.46 -28.75,-21.4 -59.17,11.1 -103.87,-39.01 -28.32,-31.75 -19,-66.57 -20.88,-76.09 -4.14,-21 -14.62,-21.07 -25.55,-35.02 -13.16,-16.8 -19.29,-32.66 -20.89,-47.22l0 -16.03c4.31,-39.48 39.15,-66.75 42.51,-73.02 8.3,-15.51 3.28,-24.3 3.28,-31.52 0,-46.36 41.56,-87.92 87.93,-87.92 8.52,0 8.15,2.78 17.56,1.22 5.86,-0.97 10.97,-2.71 15.12,-5.17 14.47,-8.56 43.91,-59.91 112.32,-34.8 32.7,12 31.6,35.55 60.91,39.96 4.86,0.73 44.33,-7.51 74.85,22.1 42.12,40.86 23.25,71.43 31.29,91.44 5.4,13.42 9.34,13.36 18.18,22.12 14.89,14.75 23.43,34.45 25.14,54.79z"/>
   <path class="fil0" d="M238.47 278.52c-8.28,-0.7 -10.38,-5.74 -15.12,-10.54 -10.36,-10.48 -32.22,-35.26 -47.16,-35.26 -16.97,0 -25.65,15.59 -25.65,23.81 0,17.33 28.6,37.23 40.8,48.97 11.92,11.48 33.9,38.96 50.79,38.96 19.26,0 24.12,-13.09 34.81,-34.8 3.85,-7.84 7.41,-12.96 11.58,-21.39 4.17,-8.42 8.13,-14.31 12.22,-22.59l23.19 -42.75c11.33,-22.51 22.61,-33.16 22.61,-52.49 0,-11.2 -12.26,-21.98 -23.81,-21.98 -17.92,0 -21.48,13.51 -28.25,24.87l-27.93 50.83c-3.75,6.98 -6.14,11.7 -9.68,17.8l-18.4 36.56z"/>
  </g>
 </g>
</svg>
