<?xml version="1.0" encoding="UTF-8"?>
<!DOCTYPE svg PUBLIC "-//W3C//DTD SVG 1.1//EN" "http://www.w3.org/Graphics/SVG/1.1/DTD/svg11.dtd">
<!-- Creator: CorelDRAW -->
<svg xmlns="http://www.w3.org/2000/svg" xml:space="preserve" width="500px" height="500px" version="1.1" style="shape-rendering:geometricPrecision; text-rendering:geometricPrecision; image-rendering:optimizeQuality; fill-rule:evenodd; clip-rule:evenodd"
viewBox="0 0 500 500"
 xmlns:xlink="http://www.w3.org/1999/xlink"
 xmlns:xodm="http://www.corel.com/coreldraw/odm/2003">
 <defs>
  <style type="text/css">
   <![CDATA[
    .fil0 {fill:#E5E5E5}
   ]]>
  </style>
 </defs>
 <g id="Camada_x0020_1">
  <metadata id="CorelCorpID_0Corel-Layer"/>
  <g id="_2470621956208">
   <path class="fil0" d="M355.86 468.65l-229.92 0c-5.42,0 -10.66,-0.72 -14.76,-1.53 -21.35,-4.22 -37.99,-19.23 -47.85,-38.14 -0.99,-1.91 -1.49,-3.55 -2.18,-5.97 -0.98,-3.41 -1.43,-4.02 -2.23,-6.83 -5.45,-19.36 0.98,-55.99 5.2,-76.33 0.96,-4.64 1.27,-5.17 2.21,-9.56 1.61,-7.56 9.56,-28 12.53,-34.54 5.68,-12.58 12.23,-27.43 19.91,-38.92l46.86 -59.96c3.62,-3.61 43.56,-43.23 51.82,-43.23l87.8 0c2.11,0 11.73,7.95 13.87,9.68l31.63 28.11 39.07 46.02c14.36,20.65 15.01,23.55 27.16,45.25l10.62 24.69c1.21,3.02 1.91,5.87 3.13,9.54 2.93,8.88 8.87,29.32 10.08,37.89 0.68,4.79 0.26,5.99 1.33,10.44 0.63,2.63 1,8.58 1.36,11.31 0.51,3.82 -0.02,7.47 0.5,11.27 2.99,21.99 -3.97,45.23 -19.45,60.71 -12.34,12.34 -30.59,20.1 -48.69,20.1zm-51.21 -461.65l14.38 0c2.94,0.21 5.4,0.57 6.72,1.14 9.16,3.97 3.82,0.43 14.44,6.38 2.52,1.41 4.01,1.98 6.26,3.7 19.93,15.25 14.58,17.95 0.68,43.41l-30.51 56.4c-1.17,2.3 -1.78,3.82 -3.01,6.03 -2.48,4.42 -4.33,8.04 -6.63,12.38l26.12 21.86c15.51,12.49 20.91,21.27 30.22,30.43 11.95,11.74 26.88,32.71 35.99,46.38l7.4 11.61c0.76,1.43 0.95,1.72 1.92,3.51 11.08,20.32 14.79,26.02 23.14,48.38 1.27,3.4 1.95,5.85 3.36,9.31 5.88,14.38 10.91,41.78 13.2,57.41 0.55,3.79 1.67,5.43 1.67,10.09l0 33.15c-0.64,8.84 -2.41,17.53 -6.83,27.91 -1.23,2.91 -1.94,3.78 -3.44,6.51 -2.55,4.66 -4.31,8.43 -7.54,12.38 -11.5,14.09 -16.24,19.11 -32.5,28.15 -5.52,3.07 -25.28,10.48 -29.35,10.48l-257.98 0c-8.49,0 -35.18,-11.5 -43.18,-18.37 -14.96,-12.84 -17.94,-15.6 -27.55,-33.1 -6.88,-12.52 -9.17,-23 -9.83,-34.13l0 -30.27c0,-6.93 4.53,-34.93 6.42,-41.55l4.15 -14.86c0.47,-1.98 0.45,-2.67 0.96,-4.47 2.53,-9.05 9.46,-26.19 13.03,-34.94 3.48,-8.52 15.14,-30.75 20.69,-39.06 13.32,-19.95 19.76,-29.72 35.58,-48.6l11.26 -12.28c10.69,-10.64 24.77,-25.21 36.83,-34.68 4.5,-3.54 8.76,-7.37 13.19,-10.34l-43.26 -65.36c-8.48,-12.71 -13.76,-17.21 -13.76,-26.97 0,-8.39 19.28,-20.74 25.71,-24.98 22.3,-14.73 49.74,-12.44 74.3,-5.33 5.93,1.72 10.4,3.13 15.74,5.07 2.81,1.02 12.22,4.42 15.5,4.42 4.03,0 12.38,-2.75 15.78,-4.13 16.22,-6.6 20.15,-7.61 34.75,-12.32 0.96,-0.31 3.18,-0.58 5.98,-0.75zm-22.11 120.39l-84.19 0 -51.59 -78.75c5.36,-8 24.6,-14.48 35.3,-14.48l23.27 3.88 32.16 10.39c6.52,1.94 7.99,1.12 16.99,1.12l25.98 -8.42c4.23,-1.66 21.12,-8.78 25.61,-8.78 9.2,0 14.37,-0.72 23.54,5.43 -0.47,5.66 -45.38,83.28 -47.07,89.61z"/>
   <path class="fil0" d="M274.39 354.6c0,26.05 -31.57,16.61 -64.28,18.09 -4.3,0.2 -7.75,0.93 -10.55,3.03 -7.1,5.33 -7.62,19.21 5.65,22.72 6.37,1.68 14.47,0.1 21.32,0.4 7.29,0.32 3.69,2.75 4.37,17.36 0.76,16.28 25.39,15.69 25.39,-1.86l0 -15.39c44.98,0 62.68,-60.23 19.42,-82.79 -11.4,-5.94 -31.13,-3.48 -43.87,-4.1 -5.85,-0.28 -8.33,-0.88 -12.53,-3.76 -10.57,-7.24 -9.45,-24.44 3.32,-29.91 9.57,-4.1 53.49,0.71 61.27,-3 10.03,-4.78 11.53,-24.89 -10.41,-24.89l-17.2 0 0 -14.48c0,-17.38 -26.2,-20.47 -25.63,1.67 0.3,11.59 2.08,12.96 -5.02,13.84 -35.65,4.42 -49.28,41.06 -32.02,67.07 21.07,31.74 58.84,12.39 73.95,22.91 3.61,2.51 6.82,7.4 6.82,13.09z"/>
  </g>
 </g>
</svg>
