<?xml version="1.0" encoding="UTF-8"?>
<!DOCTYPE svg PUBLIC "-//W3C//DTD SVG 1.1//EN" "http://www.w3.org/Graphics/SVG/1.1/DTD/svg11.dtd">
<!-- Creator: CorelDRAW -->
<svg xmlns="http://www.w3.org/2000/svg" xml:space="preserve" width="500px" height="500px" version="1.1" style="shape-rendering:geometricPrecision; text-rendering:geometricPrecision; image-rendering:optimizeQuality; fill-rule:evenodd; clip-rule:evenodd"
viewBox="0 0 500 500"
 xmlns:xlink="http://www.w3.org/1999/xlink"
 xmlns:xodm="http://www.corel.com/coreldraw/odm/2003">
 <defs>
  <style type="text/css">
   <![CDATA[
    .fil0 {fill:white}
   ]]>
  </style>
 </defs>
 <g id="Camada_x0020_1">
  <metadata id="CorelCorpID_0Corel-Layer"/>
  <g id="_2319880317952">
   <path class="fil0" d="M197.18 118.92l0 60.95 -61.98 0c-6.35,0 -10.15,5.64 -10.15,12.2l0 72.12c0,6.69 3.56,13.2 10.15,13.2l61.98 0 0 198.1c0,3.23 5.17,7.11 9.13,7.11l81.28 0c5.02,0 9.13,-4.12 9.13,-9.14l0 -196.06 72.13 0c7.53,0 10.17,-6.52 10.17,-14.22l0 -69.09c0,-7.7 -2.64,-14.22 -10.17,-14.22l-72.13 0c0,-17.73 -2.79,-58.12 6.08,-69.11 2.05,-2.55 6.23,-5.06 9.88,-6.36 5.49,-1.96 8.93,-1.19 15.26,-2.02 31.45,-4.09 54.12,7.54 54.12,-12.92l0 -67.04c0,-6.56 -3.8,-12.2 -10.15,-12.2l-67.06 0c-29.62,0 -57.28,11.78 -76.6,31.08 -9.1,9.11 -16.15,19.49 -21.51,32.33 -5.14,12.31 -9.56,28.38 -9.56,45.29l0 0z"/>
  </g>
 </g>
</svg>
