<?xml version="1.0" encoding="UTF-8"?>
<!DOCTYPE svg PUBLIC "-//W3C//DTD SVG 1.1//EN" "http://www.w3.org/Graphics/SVG/1.1/DTD/svg11.dtd">
<!-- Creator: CorelDRAW -->
<svg xmlns="http://www.w3.org/2000/svg" xml:space="preserve" width="500px" height="500px" version="1.1" style="shape-rendering:geometricPrecision; text-rendering:geometricPrecision; image-rendering:optimizeQuality; fill-rule:evenodd; clip-rule:evenodd"
viewBox="0 0 500 500"
 xmlns:xlink="http://www.w3.org/1999/xlink"
 xmlns:xodm="http://www.corel.com/coreldraw/odm/2003">
 <defs>
  <style type="text/css">
   <![CDATA[
    .fil0 {fill:white}
   ]]>
  </style>
 </defs>
 <g id="Camada_x0020_1">
  <metadata id="CorelCorpID_0Corel-Layer"/>
  <path class="fil0" d="M140.94 68.75c38.23,0 64.74,17.07 86.65,46.29 6.07,8.09 9.39,19.79 22.43,20.7 13.28,0.92 17.23,-9.9 23.31,-18.71 35.42,-51.3 100.55,-63.95 147.08,-27.95 32.27,24.95 44.75,56.96 44.75,103.11 0,37.25 -23.91,73.49 -45.17,98.63 -2.7,3.2 -4.45,4.24 -7.17,7.76 -10.27,13.29 -45.05,44.4 -59.86,56.8 -3.04,2.55 -4.54,4.79 -7.58,7.34l-15.55 12.94c-5.49,5.13 -9.95,9.07 -16.03,13.81 -3.31,2.56 -4.15,3.97 -7.03,6.53l-55.95 47.16c-3.47,-2.33 -7.17,-6.18 -11.05,-9.3l-126.98 -111.77c-21.78,-21.79 -44.23,-43.73 -58.69,-71.55 -19.03,-36.62 -24.04,-83.11 -4.72,-121.42 2.53,-5.02 4.94,-9.18 7.98,-13.72 17.52,-26.18 47.67,-46.65 83.58,-46.65zm-8.62 -28.49l21.44 0c21.41,1.65 42.29,8.27 59.28,20.15 22.9,16 34.92,34 39.14,36.83 10.79,-16.12 22.04,-26.44 38.52,-37.45 28.43,-19 43.87,-19.51 73.84,-19.53l2.95 0c37.63,0 71.95,22.77 89.86,43.08 21.86,24.82 37.65,62.39 37.65,95.29l0 1.01 0 16.07c-0.21,2.65 -0.8,5.12 -2.34,14.49 -4.13,25.15 -9.7,38.1 -21.63,59.76 -5.66,10.25 -12.83,19.66 -20.02,28.82l-22.82 26.02c-10.93,10.92 -21.32,22.19 -32.54,32.57 -3.5,3.24 -5.27,3.89 -8.84,7.44 -3.65,3.63 -5.21,4.31 -8.8,7.48l-34.61 30.5c-5.49,5.47 -11.52,9.89 -17.56,15l-34.89 30.22c-15.02,11.68 -24.19,23.2 -35.74,24.99l-6.28 0c-5.89,-0.88 -12.6,-4.23 -20.98,-11.04l-52.69 -44.98c-6.27,-5.31 -10.88,-9.97 -17.47,-15.09l-34.85 -30.27c-5.85,-5.68 -11.21,-9.82 -16.92,-15.63 -3.65,-3.7 -4.77,-4.46 -8.69,-7.59 -3.25,-2.59 -5.27,-4.99 -8.28,-8l-23.76 -25.08c-3.52,-3.52 -4.18,-5.33 -7.44,-8.83 -5.4,-5.8 -9.81,-11.63 -14.31,-18.25 -4.79,-7.04 -8.5,-11.81 -12.9,-19.66 -4.11,-7.33 -7.49,-13.81 -10.85,-21.71 -10.6,-24.96 -11.75,-41.9 -11.79,-68.33l0 -1.27c0,-49.41 29.57,-99.15 73.89,-122.81 15.07,-8.04 32.54,-12.83 50.43,-14.2z"/>
 </g>
</svg>
