<?xml version="1.0" encoding="UTF-8"?>
<!DOCTYPE svg PUBLIC "-//W3C//DTD SVG 1.1//EN" "http://www.w3.org/Graphics/SVG/1.1/DTD/svg11.dtd">
<!-- Creator: CorelDRAW -->
<svg xmlns="http://www.w3.org/2000/svg" xml:space="preserve" width="500px" height="500px" version="1.1" style="shape-rendering:geometricPrecision; text-rendering:geometricPrecision; image-rendering:optimizeQuality; fill-rule:evenodd; clip-rule:evenodd"
viewBox="0 0 500 500"
 xmlns:xlink="http://www.w3.org/1999/xlink"
 xmlns:xodm="http://www.corel.com/coreldraw/odm/2003">
 <defs>
  <style type="text/css">
   <![CDATA[
    .fil0 {fill:#595959}
   ]]>
  </style>
 </defs>
 <g id="Camada_x0020_1">
  <metadata id="CorelCorpID_0Corel-Layer"/>
  <g id="_2470680938512">
   <path class="fil0" d="M398.27 371.31l0 -16.77c21.14,0 58.38,3.05 72.34,-6.29 0,10.09 1.72,26.55 -1.12,34.52 -6.65,18.61 -27.72,14.75 -47.11,14.75 -15.58,0 -24.11,-10.36 -24.11,-26.21zm-374.3 -23.06c4.16,2.2 7.68,4.23 12.85,4.97 15.5,2.23 42.78,1.32 59.49,1.32l0 22.01c0,11.35 -10.78,20.97 -22.02,20.97 -19.33,0 -42.16,3.79 -48.4,-14.5 -2.92,-8.54 -1.92,-23 -1.92,-34.77zm0 -41.94l0 -73.39c0,-17.71 7.02,-29.91 19.31,-39.4 2.6,-2.01 8.53,-8.83 11.09,-8.83l392.13 0c2.59,0 13.76,12.87 15.9,15.54 4.07,5.07 8.21,14.41 8.21,23.25l0 88.07c0,10.85 -10.12,20.97 -20.97,20.97l-403.65 0c-13.84,0 -22.02,-11.11 -22.02,-26.21zm317.68 -182.43c14.18,0 25.81,4.29 34.86,12.31 6.11,5.42 14.62,17.38 15.46,27.53l-97.5 0c0,-18.35 23.62,-39.84 47.18,-39.84zm-70.25 39.84l-207.59 0 15.28 -41.34c4.24,-11.05 16.82,-48.97 22.2,-54.34 2.97,-2.97 8.25,-6.02 13.89,-6.02l271.55 0c5.5,0 10.3,2.74 13.36,5.51 5.85,5.28 23.49,56.7 27.13,67.24 2.44,7.05 9.7,22.68 9.84,28.95 -36.38,0 -15.77,1.46 -30.18,-23.29 -4.85,-8.33 -8.05,-12.32 -14.63,-18.93 -34.4,-34.54 -99.24,-22 -117.07,29.22 -1.45,4.15 -2.25,9.81 -3.78,13zm-268.4 60.81l0 153.07c0,20.38 19.59,40.89 39.84,40.89 30.79,0 45.5,4.6 63.72,-13.87 13.79,-13.98 11.77,-31.22 11.77,-50.08l258.97 0c0,24.64 -3.22,38.99 17.55,55.83 11.12,9.02 21.88,8.17 41.17,8.12 15.44,-0.05 23.05,2.84 38.81,-8.36 8.5,-6.04 17.8,-21.38 17.8,-31.48l0 -159.36c0,-6.98 -5.61,-20.66 -9.22,-26.43 -8.46,-13.52 -18.2,-16.78 -22.89,-30.59l-29.01 -77.93c-5.17,-13.1 -7.27,-24.34 -19.25,-34.22 -5.8,-4.77 -15.54,-10.12 -25.53,-10.12l-271.55 0c-11.33,0 -19.73,5.57 -26.23,10.46 -6.85,5.14 -11.29,13.7 -14.51,22.19l-35.25 94.75c-5.21,9.01 -36.19,24.86 -36.19,57.13z"/>
   <path class="fil0" d="M73.25 247.6l56.61 0 0 32.5 -56.61 0 0 -32.5zm-22.02 -7.34l0 46.13c0,9.8 3.89,15.72 13.63,15.72l73.39 0c7.58,0 13.63,-4.19 13.63,-11.53l0 -51.37c0,-9.93 -5.8,-13.63 -15.73,-13.63l-69.2 0c-9.81,0 -15.72,4.36 -15.72,14.68z"/>
   <path class="fil0" d="M364.72 247.6l56.61 0 0 32.5 -56.61 0 0 -32.5zm-20.97 -11.54l0 55.57c0,6.56 5.81,10.48 12.58,10.48l72.34 0c9.37,0 14.68,-3.21 14.68,-12.58l0 -52.42c0,-8.91 -7.83,-11.53 -15.73,-11.53l-70.24 0c-6.9,0 -13.63,3.67 -13.63,10.48z"/>
   <path class="fil0" d="M186.48 280.1c0,7.53 5.14,11.53 12.58,11.53l96.46 0c17.97,0 17.42,-22.02 0,-22.02l-94.36 0c-7.95,0 -14.68,2.72 -14.68,10.49z"/>
   <path class="fil0" d="M186.48 247.6c0,7.53 5.14,11.53 12.58,11.53l98.56 0c13.38,0 17.81,-22.02 -4.2,-22.02l-93.31 0c-6.9,0 -13.63,3.68 -13.63,10.49z"/>
  </g>
 </g>
</svg>
