<?xml version="1.0" encoding="UTF-8"?>
<!DOCTYPE svg PUBLIC "-//W3C//DTD SVG 1.1//EN" "http://www.w3.org/Graphics/SVG/1.1/DTD/svg11.dtd">
<!-- Creator: CorelDRAW -->
<svg xmlns="http://www.w3.org/2000/svg" xml:space="preserve" width="500px" height="500px" version="1.1" style="shape-rendering:geometricPrecision; text-rendering:geometricPrecision; image-rendering:optimizeQuality; fill-rule:evenodd; clip-rule:evenodd"
viewBox="0 0 500 500"
 xmlns:xlink="http://www.w3.org/1999/xlink"
 xmlns:xodm="http://www.corel.com/coreldraw/odm/2003">
 <defs>
  <style type="text/css">
   <![CDATA[
    .fil0 {fill:#E5E5E5}
   ]]>
  </style>
 </defs>
 <g id="Camada_x0020_1">
  <metadata id="CorelCorpID_0Corel-Layer"/>
  <g id="_2470615821168">
   <path class="fil0" d="M45.26 378.55l0 95.19 -17 0 0 -152.98 54.39 0 0 152.98 -16.99 0 0 -95.19c0,-16.81 -20.4,-16.81 -20.4,0zm258.37 -21.53l-29.41 -0.06c-23.02,-1.91 -34.36,-4.72 -31.73,18.11 2.8,24.19 17.95,37.48 41.87,37.48 62.87,0 166.43,-43.01 175,-41.38 16.98,3.25 20.02,22.77 7.02,30.75 -4.6,2.82 -8.63,3.91 -13.17,6.09 -4.13,-7.79 -9.55,-20.36 -18.97,-15.67 -11.14,5.53 -2.85,16.64 0.83,23.6l-51.98 19.41c-5.54,2.01 -13.25,4.74 -18.53,6.4 -12.52,3.93 -23.57,7.47 -36.48,11.11 -14.46,4.08 -65.11,16.56 -80.92,15.11 -32.01,-2.96 -72.88,-33.9 -112.38,-33.9l-32.86 0 0 -83.85c5.37,0 8.15,-0.98 14.74,-1.12 13.46,-0.29 27.25,-5.79 37.87,-13.13 6.26,-4.33 8.79,-9.02 19.51,-14.48 17.56,-8.96 30.38,-8.59 49.79,-5.92 7.78,1.07 14.65,1.34 22.49,2.44 14.9,2.08 32.79,1.94 45.97,5.01 0,13.39 -2.13,23.8 10.2,23.8 11.22,0 9.07,-11.69 9.07,-21.53 13.41,0 17.34,0.84 28.33,3.4 -0.48,21.32 -14.33,28.33 -36.26,28.33zm-138.25 -160.91c0,-4 37.02,-36.44 41.64,-41.08 2.41,-2.42 4.3,-4.58 6.81,-6.79l50.4 -47.05c4.16,-3.84 10.45,-7.88 14.47,-13.87 5.42,3.63 18.4,16.88 25.73,23l44.78 42.47c2.81,2.77 4.04,3.2 6.82,5.65 7.65,6.74 25.06,24.98 32.13,30.19 3.27,2.42 4.56,2.98 5.02,7.44l-0.03 174.55 -49.84 13.62c-24.98,6.46 -34.45,5.42 -54.91,8.58 -15.69,2.43 -22.82,-4.75 -25.57,-16.54 21.78,0 50.64,2.69 67.03,-3.22 28.43,-10.25 47.21,-59.97 4.32,-65.86 -21.3,-2.93 -112.38,-12.51 -134.81,-12.51 -12.7,0 -25.68,4.67 -33.99,9.07l0 -17c5.61,2.69 132.95,1.01 157.52,1.14 9.5,0.05 16.36,0.39 19.95,-6.2 3.88,-7.1 -2.3,-14.2 -9.76,-14.2l-167.71 0 0 -71.39zm-32.86 1.13c-2.26,-3.37 -10.94,-12.59 -14.74,-13.6 1.18,-4.41 11.92,-12.4 18.98,-19.55l40.75 -37.44c3.49,-2.92 6.38,-6.36 9.66,-9.6l92.66 -85.25 120.97 112.46c7.65,7.72 36.22,32.69 39.94,38.25l-15.86 14.73c-3.08,-4.59 -51.54,-48.68 -60.89,-58.09l-45.35 -41.91c-2.86,-2.88 -5.5,-5.9 -8.55,-8.45l-17.63 -16.37c-2.39,-1.91 -2.56,-1.78 -4.96,-4.1 -9.97,-9.66 -16.49,0.36 -28.34,10.8l-126.64 118.12zm-1.14 22.66c10.05,0 8.29,-3.61 14.73,-7.93l0 106.52c-7.64,2.04 -7.99,11.33 -44.19,11.33 0,-35.99 8.69,-29.46 -78.19,-29.46 -8.15,0 -14.73,2.12 -14.73,10.2l0 173.38c0,5.48 3.58,9.06 9.06,9.06l74.79 0c12.98,0 9.07,-18.36 9.07,-39.66 19.73,0 39.35,-1.04 57.67,4.65 59.38,18.45 60.74,38.27 128.08,24.73 52,-10.47 114.86,-31.49 162.95,-52.36 17.47,-7.58 43.38,-13.47 43.38,-42.75 0,-20.15 -15.86,-36.26 -39.66,-36.26 -6.82,0 -30.4,10.05 -40.8,12.47l0 -150.72c10.75,7.2 11.3,11.58 23.5,-0.3 6.67,-6.5 28.63,-22.78 28.63,-30.29 0,-7.99 -15.61,-18.38 -20.7,-23.5l-74.82 -70.22c-2.72,-2.27 -3.54,-2.49 -6.2,-5.13l-64.52 -60.13c-9.14,-7.64 -11.45,-15.53 -21.87,-15.53 -3.26,0 -5.51,4.01 -7.66,5.94l-35.57 32.42c-5.02,4.01 -8.74,9.23 -13.76,13.43l-98.52 91.85c-5.83,5.4 -25.62,21.89 -27.73,26.77 -3.41,7.88 5.61,14.71 14.67,23.09 3.7,3.42 19.64,18.4 22.39,18.4z"/>
   <path class="fil0" d="M241.3 233.5l-38.53 0 0 -33.99 41.93 0 0 30.59c0,2.61 -0.79,3.4 -3.4,3.4zm-57.79 -43.06l0 52.13c0,5.6 4.6,10.2 10.2,10.2l60.06 0c6.95,0 10.19,-5.4 10.19,-12.47l0 -47.59c0,-5.46 -3.1,-12.47 -7.93,-12.47l-64.59 0c-4.12,0 -7.93,5.53 -7.93,10.2z"/>
   <path class="fil0" d="M314.96 199.51l40.79 0 0 33.99 -40.79 0 0 -33.99zm-19.27 -10.2l0 54.39c0,2.94 0.58,4.18 2.08,5.86 0.78,0.87 4.26,3.21 5.86,3.21l63.45 0c1.85,0 7.94,-2.59 7.94,-9.07l0 -54.39c0,-5.48 -3.59,-9.07 -9.07,-9.07l-61.19 0c-5.48,0 -9.07,3.59 -9.07,9.07z"/>
   <path class="fil0" d="M45.26 344.55c0,13.02 20.4,13.02 20.4,0 0,-13.01 -20.4,-13.01 -20.4,0z"/>
   <path class="fil0" d="M355.75 277.7c0,10.88 19.27,14.79 19.27,-2.27 0,-9.01 -19.27,-11.99 -19.27,2.27z"/>
  </g>
 </g>
</svg>
