<?xml version="1.0" encoding="UTF-8"?>
<!DOCTYPE svg PUBLIC "-//W3C//DTD SVG 1.1//EN" "http://www.w3.org/Graphics/SVG/1.1/DTD/svg11.dtd">
<!-- Creator: CorelDRAW -->
<svg xmlns="http://www.w3.org/2000/svg" xml:space="preserve" width="500px" height="500px" version="1.1" style="shape-rendering:geometricPrecision; text-rendering:geometricPrecision; image-rendering:optimizeQuality; fill-rule:evenodd; clip-rule:evenodd"
viewBox="0 0 500 500"
 xmlns:xlink="http://www.w3.org/1999/xlink"
 xmlns:xodm="http://www.corel.com/coreldraw/odm/2003">
 <defs>
  <style type="text/css">
   <![CDATA[
    .fil0 {fill:white}
   ]]>
  </style>
 </defs>
 <g id="Camada_x0020_1">
  <metadata id="CorelCorpID_0Corel-Layer"/>
  <g id="_2320133906000">
   <g id="_1704305468784">
    <path class="fil0" d="M445.06 197.88l0.02 117.96 -3.2 46.9c-4.99,36.4 -25.2,65.74 -63.67,74.11 -37.75,8.2 -147.59,5.27 -190.96,5.27 -21.97,0 -41.03,-1.32 -59.94,-4.77 -17.92,-3.27 -32.05,-11.55 -42.61,-22.11 -24.16,-24.15 -26.88,-56.52 -26.88,-103.59l0 -126.3c0,-5.14 -0.18,-10.6 -0.03,-15.69 0.39,-13.02 1.99,-31.95 4.47,-44.59l5.53 -18.46c9.58,-22.11 24.86,-34.88 46.4,-43.38 18.31,-7.23 52.12,-8.35 74.11,-8.35l126.29 0c36.41,0 84.16,1.4 107.07,30.71 5.88,7.5 9.3,11.83 13.13,21.31 6.89,17.05 9.29,37.84 9.21,57.6 -0.03,6.92 1.1,8.99 1.1,15.6 0,5.92 -0.04,11.85 -0.04,17.78l0 0zm-432.12 50.1l3.16 115.82c1.13,22.1 11.56,48.85 23.55,66.22 22.47,32.54 58.07,49.52 96.63,53.67 9.01,0.97 18.03,0.86 27.44,1.8 3.74,0.37 2.72,-0.06 5.46,0.05l81.74 1.46c30.47,0 86.27,-0.94 114.73,-3.21 15.46,-1.25 35.68,-6.93 47.06,-12.45 54.36,-26.34 75.4,-73.76 75.13,-133.62l1.06 -29.2c0,-20.27 1.05,-38.42 1.05,-59.5 0,-26.32 -1.1,-90.82 -3.22,-113.67 -3.78,-40.93 -20.69,-72.76 -51.95,-97.33 -6.88,-5.4 -21.05,-12.7 -29.22,-15.65 -31.61,-11.4 -59.82,-11.33 -94.1,-11.33 -20.27,0 -38.41,-1.04 -59.49,-1.04 -29.99,0 -88.1,1 -115.78,3.21 -21.85,1.75 -39.79,8.73 -56.82,17.29 -12.21,6.13 -31.02,23.28 -38.88,35.22 -2.18,3.32 -3.82,5.55 -5.85,8.77 -20.34,32.42 -20.65,76.23 -20.65,113.99 0,20.27 -1.05,38.41 -1.05,59.5z"/>
    <path class="fil0" d="M172.64 249.02c0,-19.58 8.61,-41.62 22.17,-55.07 3.83,-3.8 5.64,-5.53 10.02,-8.77l12.4 -7.43c11.36,-5.47 16.37,-5.56 31.03,-7.66 13.21,-1.89 33.26,4.8 44.63,11.91 4.91,3.07 7.16,5.44 11.27,8.56 13.22,10.06 25.04,34.78 25.04,53.24 0,20.77 -2.19,34.28 -14.74,51.01 -2.26,3 -6.57,8.47 -9.24,10.6 -9.02,7.18 -11.03,10.02 -23.41,15.2 -8.79,3.67 -17.63,5.75 -27.2,5.97l-6.6 0.03c-23.56,0.12 -47.26,-14.01 -60.78,-32.69 -4.82,-6.68 -10.75,-19.32 -12.23,-27.43 -0.81,-4.37 -2.36,-13.48 -2.36,-17.47l0 0zm-43.84 -5.22c0,34.91 8.4,58.28 28.97,83.75 5.31,6.56 3.14,3.35 7.84,7.82 24.95,23.75 50.69,35.77 88.44,35.77 15.18,0 39.26,-6.11 48.86,-11.68 17.04,-9.86 19.44,-9.16 35.43,-25.11 8.31,-8.29 16.91,-19.45 21.98,-30.21 7.58,-16.05 13.77,-32.43 13.77,-55.12 0,-95.95 -107.55,-158.53 -192.28,-101.46 -10.16,6.83 -9.39,7.19 -16.25,14.01 -6.16,6.11 -6.54,5.16 -13.8,15.43 -12.41,17.59 -22.96,42.71 -22.96,66.8l0 0z"/>
    <path class="fil0" d="M349.04 118.55l0 6.26c0,18.28 27.97,38.33 49.32,16.97 18.29,-18.28 4.91,-40.97 -8.25,-46.56 -21.56,-9.14 -41.07,8.03 -41.07,23.33l0 0z"/>
   </g>
  </g>
 </g>
</svg>
