<?xml version="1.0" encoding="UTF-8"?>
<!DOCTYPE svg PUBLIC "-//W3C//DTD SVG 1.1//EN" "http://www.w3.org/Graphics/SVG/1.1/DTD/svg11.dtd">
<!-- Creator: CorelDRAW -->
<svg xmlns="http://www.w3.org/2000/svg" xml:space="preserve" width="500px" height="500px" version="1.1" style="shape-rendering:geometricPrecision; text-rendering:geometricPrecision; image-rendering:optimizeQuality; fill-rule:evenodd; clip-rule:evenodd"
viewBox="0 0 500 500"
 xmlns:xlink="http://www.w3.org/1999/xlink"
 xmlns:xodm="http://www.corel.com/coreldraw/odm/2003">
 <defs>
  <style type="text/css">
   <![CDATA[
    .fil0 {fill:#7F7F7F}
   ]]>
  </style>
 </defs>
 <g id="Camada_x0020_1">
  <metadata id="CorelCorpID_0Corel-Layer"/>
  <g id="_2470688477824">
   <path class="fil0" d="M91.5 190.48c0,-19.39 1.23,-33.88 7.18,-51.65 0.55,-1.64 0.58,-1.82 1.09,-3.32 6.06,-17.76 20.02,-41.62 33.81,-53.69 4.95,-4.34 9.22,-9.64 14.52,-13.42 20.42,-14.56 43.45,-26.78 68.39,-30.88 25.54,-4.19 50.71,-4.14 75.38,3.32 1.29,0.39 2.31,0.55 3.5,0.91 1.27,0.38 2.32,0.77 3.86,1.29 10.88,3.64 20.85,8.43 30.68,14.17l31.27 23.88c8.17,7.48 14.38,17.52 20.43,26.63 0.09,0.13 0.22,0.3 0.3,0.43l0.86 1.35c0.59,0.96 0.89,1.53 1.62,2.8 7.97,13.74 14.96,31.65 17.22,47.48 0.43,3.03 0.5,5.33 0.88,7.94 3.02,20.85 -1.03,42.94 -5.5,62.8 -2.77,12.29 -6.72,24.24 -10.8,36.26l-11.85 28.59c-2.18,4.48 -3.43,9.5 -5.94,13.92 -4.34,7.68 -7.28,15.28 -11.77,22.79 -1.75,2.95 -3.31,5.59 -4.83,8.4 -4.69,8.65 -10.28,16.67 -15.31,25.14l-21.89 31.78c-1.3,1.78 -1.79,2.06 -2.92,3.69l-8.64 11.96c-3.97,4.72 -7.67,10.04 -12.08,14.39l-6.24 6.99c-9.99,10.09 -20.06,21.5 -32.58,28.45 -2.27,1.26 -2.71,1.23 -4.76,2.6 -2.82,-1.89 -5.5,-2.85 -8.4,-4.83 -2.8,-1.93 -4.85,-3.65 -7.57,-5.67 -5.37,-4 -9.68,-8.17 -14.37,-12.83l-21.99 -24.34c-1.14,-1.45 -1.78,-2.84 -3.03,-4.32 -12.47,-14.73 -22.42,-31.55 -33.61,-47.27l-5.16 -8.08c-5.19,-8.1 -10.59,-16.89 -14.89,-25.55l-27.54 -59.97c-0.79,-2.07 -1.06,-2.95 -1.76,-4.85 -1.11,-3.08 -2.41,-6.8 -3.41,-9.82 -0.78,-2.34 -1.02,-2.93 -1.57,-5.05l-3.1 -10.14c-3.9,-13.83 -9.48,-38.74 -9.48,-52.28zm147.62 -186.04l16.91 0c8.38,0.33 16.74,1.14 24.98,2.41l24.99 6.01c11.2,3.2 23.06,8.25 33.14,13.8l15.29 8.98c0.86,0.62 0.99,0.71 1.75,1.19 7.24,4.63 14.35,10.19 20.43,16.34 3.8,3.84 7.73,6.7 11.11,10.94 1.74,2.18 3.55,3.47 5.43,5.6 5.4,6.07 10.25,13.02 14.74,19.82 0.75,1.14 0.53,0.79 1.13,1.81 7.52,12.61 13.86,25.09 18.53,39.56 0.83,2.59 1.6,5.89 2.25,8.78 2.11,9.31 4.35,16.61 4.35,27.27l0 32.78c-0.27,5.4 -0.88,11.44 -2.08,20.28 -0.43,3.08 -0.41,3.38 -1.15,6.21l-4.18 18.61 -21.97 61.12c-7.58,16.89 -15.96,33.81 -25.34,49.66 -10.84,18.32 -13.8,23.67 -25.82,41.82 -1.52,2.29 -1.34,2.21 -3.06,4.31 -4.63,5.64 -8.08,11.83 -12.62,17.52l-30.06 36.85c-5.76,6.62 -12.85,12.38 -19.12,18.38 -4.95,4.72 -11.31,9.42 -17.14,13.02 -11.04,6.82 -15.6,8.12 -28.64,8.12 -3.85,0 -8.86,-2.37 -12.15,-4.02 -5.32,-2.67 -10.03,-5.27 -14.63,-8.9l-28.18 -25.5c-1.22,-1.2 -2.24,-2.09 -3.25,-3.37 -0.97,-1.23 -1.72,-2.69 -2.69,-3.92l-27.6 -33.44c-1.1,-1.44 -1.77,-2.44 -2.79,-3.83l-31.53 -48.62c-0.78,-1.38 -1.51,-2.37 -2.5,-4.12 -9.03,-15.98 -17.71,-32.13 -25.33,-48.93 -7.19,-15.86 -13.13,-31.65 -18.82,-48.09 -2.32,-6.71 -4.34,-13.78 -6.12,-20.35 -1.09,-4 -1.79,-7.19 -2.46,-11.51 -0.37,-2.3 -0.89,-3.07 -1.26,-5.37l-2.71 -17.87c-1.01,-6.22 -0.44,-12.88 -1.18,-19.41 -0.18,-1.63 -0.5,-2.39 -0.62,-3.97l0 -2.65 1.98 -23.86c0.34,-2.6 0.35,-3.97 0.78,-5.83l7.34 -26.49 7.85 -18.62c5.19,-11.79 13.08,-22.63 21.12,-32.56 2.85,-3.51 9.44,-11.94 12.6,-14.61l21.86 -18.58c1.58,-1.14 2.09,-1.87 3.7,-2.91 1.49,-0.97 2.42,-1.33 4.07,-2.55 13.74,-10.1 38.56,-20.93 55.27,-24.89l22.68 -4.51c6.82,-1 13.75,-1.63 20.72,-1.91z"/>
   <path class="fil0" d="M186.35 187.53c0,-9.58 -0.64,-11.34 2.47,-21.06 1.25,-3.93 2.54,-6.41 4.26,-9.71 1.45,-2.8 3.58,-5.74 5.66,-8.31l3.49 -3.86c0.11,-0.11 0.26,-0.26 0.37,-0.37 0.05,-0.04 0.93,-0.81 1.17,-1.03 0.87,-0.79 1.07,-1.01 1.88,-1.8 2.59,-2.57 4.7,-3.42 7.69,-5.55 16.54,-11.74 41.31,-12.8 59.67,-4.82l9.09 4.89c1.58,1.01 2.62,1.4 4.04,2.57 6.26,5.11 8.59,7.24 13.35,13.86 0.1,0.12 0.22,0.3 0.31,0.43 11.24,16.29 12.8,38.81 2.64,56 -4.04,6.83 -10.06,14.39 -16.5,18.79 -11.47,7.83 -23.22,11.97 -37.93,12.81 -2.22,0.13 -9.54,-1.02 -12.29,-1.47 -16.61,-2.68 -34.46,-14.45 -42.51,-29.55 -1.66,-3.1 -3.26,-6.08 -4.4,-9.56 -0.93,-2.83 -2.46,-9.04 -2.46,-12.26zm-32.35 -5.14c0,3.75 0.41,6.37 0.94,10.09 2.1,15.01 6.49,27.09 15.76,39.39 5.14,6.82 14.67,17.51 22.27,21.85 6.37,3.63 7.07,4.5 14.22,7.83 5.21,2.44 10.57,4.06 16.6,5.46 16.58,3.85 29.98,4.03 46.72,0.26 2.07,-0.46 2.63,-0.61 4.08,-1.05 1.26,-0.39 2.36,-0.63 4.04,-1.11 8.12,-2.32 21.43,-9.51 28.01,-14.64l16.06 -16.3c7.49,-9.68 10.74,-16.3 14.67,-27.97 4.96,-14.72 4.41,-31.44 0.04,-46.19 -3.68,-12.44 -7.33,-17.89 -14.72,-28.67 -1.82,-2.65 -12.92,-13.95 -16.18,-16.17 -12.03,-8.24 -22.78,-14 -37.39,-17.02 -24.78,-5.14 -52.75,-1.67 -74.1,12.75 -8.85,5.99 -6.47,4.22 -12.52,10.28 -1.36,1.37 -1.76,1.28 -2.87,2.28 -1.53,1.38 -1.23,1.58 -2.66,3.22 -2.08,2.38 -3.21,3.1 -5.23,5.8 -5.48,7.35 -10.72,16.72 -13.54,25.43 -0.45,1.41 -0.88,3.56 -1.19,4.7 -1.17,4.37 -3.01,14.68 -3.01,19.78z"/>
  </g>
 </g>
</svg>
