<?xml version="1.0" encoding="UTF-8"?>
<!DOCTYPE svg PUBLIC "-//W3C//DTD SVG 1.1//EN" "http://www.w3.org/Graphics/SVG/1.1/DTD/svg11.dtd">
<!-- Creator: CorelDRAW -->
<svg xmlns="http://www.w3.org/2000/svg" xml:space="preserve" width="500px" height="500px" version="1.1" style="shape-rendering:geometricPrecision; text-rendering:geometricPrecision; image-rendering:optimizeQuality; fill-rule:evenodd; clip-rule:evenodd"
viewBox="0 0 500 500"
 xmlns:xlink="http://www.w3.org/1999/xlink"
 xmlns:xodm="http://www.corel.com/coreldraw/odm/2003">
 <defs>
  <style type="text/css">
   <![CDATA[
    .fil0 {fill:#E5E5E5}
   ]]>
  </style>
 </defs>
 <g id="Camada_x0020_1">
  <metadata id="CorelCorpID_0Corel-Layer"/>
  <g id="_2470425193264">
   <path class="fil0" d="M237.13 460.65c-11.26,-5.95 -8.69,-4.42 -17.43,-11.91l-4.84 -4.59c-12.92,-13.02 -19.2,-19.49 -30.88,-35.15 -7.76,-10.4 -14.35,-19.78 -21.68,-30.73 -3.68,-5.48 -6.87,-10.6 -10.13,-16.08 -3.13,-5.27 -6.8,-10.65 -9.73,-16.47 -15.5,-30.8 -29.72,-54.48 -40.07,-90.94 -18.33,-64.6 -20.13,-120.68 31.26,-172.24 14.51,-14.56 20.81,-16.74 35.98,-25.87 2.55,-1.53 3.05,-2.05 6.11,-3.32 42.36,-17.69 93.08,-18.41 132.9,5.65 14.41,8.71 26.3,16.78 36.78,29.25 18.48,22 31.4,40.46 36.33,75.83 9.45,67.9 -28.39,144.14 -61.73,200.2l-8.44 13.57c-1.81,2.55 -2.5,3.29 -4.26,6.23 -9.58,16.1 -41.74,55.47 -56.37,67.3 -4.72,3.81 -8.92,6.01 -13.8,9.27zm176.09 -284.1l0 21.18c-0.38,7.58 -1.18,15.12 -2.37,22.55 -1.28,8.03 -3.15,16.17 -5.18,24.24 -5.89,23.5 -13.16,43.7 -22.83,65.22 -3.07,6.83 -6.7,13.63 -9.3,20.04 -6.22,15.36 -32.98,59.98 -43.12,74.27 -16.25,22.88 -61.85,85.95 -90.14,85.95 -13.01,0 -16.95,-1.05 -27.48,-8.16 -5.81,-3.92 -11.96,-8.68 -16.81,-13.58 -15.47,-15.66 -28.94,-30.36 -41.67,-48.48 -11.36,-16.19 -19.03,-26.75 -29.79,-44.62 -22.31,-37.01 -48.77,-92.39 -57.99,-135.92 -4.89,-23.09 -6.54,-32.24 -6.54,-57.39 0,-24.61 6.54,-50.19 15.36,-68.5 13.75,-28.55 15.52,-26.17 29.71,-44.7 1.82,-2.38 2.7,-3.27 4.97,-5.51 14.69,-14.52 30.16,-25.85 49.52,-35.39 16.3,-8.03 43.91,-16.75 68.14,-16.75 44.04,0 49.61,1.95 86.1,16.62 6.87,2.76 20.39,11.07 26.36,15.57 19.84,14.95 26.63,21.68 41.47,41.33 19.99,26.47 29.88,59.01 31.59,92.03z"/>
   <path class="fil0" d="M236.09 129.44c8.94,0 17.28,1.88 24.43,4.92 11.73,4.98 22.81,15.69 28.5,27.05 8.68,17.34 6.86,37.75 -3.71,53.94 -5.99,9.17 -13.74,14.81 -23.35,19.62 -31.99,16.01 -76.13,-2.97 -81.74,-42.03 -2.46,-17.12 3.81,-37.43 16.46,-47.36 8.63,-6.78 5.12,-5.39 16.32,-10.93 5.18,-2.56 15.36,-5.21 23.09,-5.21zm-87 53.46c0,17.45 1.92,23.44 8.67,38.49 7.87,17.54 23.96,32.12 41.28,40.48 53.86,26.03 126.14,-10.66 126.14,-77.93 0,-44.75 -41.2,-83.85 -83.85,-83.85 -17.86,0 -25.1,0.98 -41.5,7.77 -9.39,3.89 -17.83,10.12 -24.8,17.12 -8.16,8.21 -12.19,13.69 -17.56,24.37 -4.38,8.7 -8.38,20.53 -8.38,33.55z"/>
  </g>
 </g>
</svg>
