<?xml version="1.0" encoding="UTF-8"?>
<svg version="1.1" xmlns="http://www.w3.org/2000/svg" width="500" height="452">
<path d="M0 0 C165 0 330 0 500 0 C500 21.78 500 43.56 500 66 C335 66 170 66 0 66 C0 44.22 0 22.44 0 0 Z " fill="#FFFFFF" transform="translate(0,193)"/>
<path d="M0 0 C165 0 330 0 500 0 C500 21.45 500 42.9 500 65 C335 65 170 65 0 65 C0 43.55 0 22.1 0 0 Z " fill="#FFFFFF" transform="translate(0,387)"/>
<path d="M0 0 C165 0 330 0 500 0 C500 21.45 500 42.9 500 65 C335 65 170 65 0 65 C0 43.55 0 22.1 0 0 Z " fill="#FFFFFF" transform="translate(0,0)"/>
</svg>
