<?xml version="1.0" encoding="UTF-8"?>
<!DOCTYPE svg PUBLIC "-//W3C//DTD SVG 1.1//EN" "http://www.w3.org/Graphics/SVG/1.1/DTD/svg11.dtd">
<!-- Creator: CorelDRAW -->
<svg xmlns="http://www.w3.org/2000/svg" xml:space="preserve" width="500px" height="500px" version="1.1" style="shape-rendering:geometricPrecision; text-rendering:geometricPrecision; image-rendering:optimizeQuality; fill-rule:evenodd; clip-rule:evenodd"
viewBox="0 0 500 500"
 xmlns:xlink="http://www.w3.org/1999/xlink"
 xmlns:xodm="http://www.corel.com/coreldraw/odm/2003">
 <defs>
  <style type="text/css">
   <![CDATA[
    .fil0 {fill:#E4E4E4}
   ]]>
  </style>
 </defs>
 <g id="Camada_x0020_1">
  <metadata id="CorelCorpID_0Corel-Layer"/>
  <g id="_2470621175920">
   <path class="fil0" d="M40.13 173.49l416.02 0 0 278.25 -416.02 0 0 -278.25zm-31.02 -93.97l0 375.87c0,14.32 14.41,28.28 32.85,28.28l411.45 0c19.14,0 33.75,-12.84 33.75,-26.46l0 -379.52c0,-7.3 -5.96,-15.33 -10.4,-18.79 -5.98,-4.65 -12.25,-7.66 -22.44,-7.66 -53.76,0 -46.58,-3.65 -46.53,11.86l0.03 44.72c0.06,10.26 -3.06,15.78 -8.44,20.76 -9.98,9.25 -21.4,8.41 -33.55,8.41 -8.81,0 -16.35,-4.58 -21.22,-8.88 -5.13,-4.53 -8.71,-11.52 -10.23,-19.88 -1.35,-7.47 -0.5,-33.23 -0.48,-44.22 0,-4.17 1.65,-12.77 -2.74,-12.77l-164.22 0 0 45.61c0,24.66 -11.68,41.06 -37.4,41.06 -20,0 -32.52,-10.87 -36.28,-26.67 -2.02,-8.47 -1.13,-34.52 -1.12,-46.32 0.01,-17.7 8.27,-13.68 -48.36,-13.68 -11.74,0 -19.4,3.13 -25.92,9.65 -4.47,4.47 -8.75,11.81 -8.75,18.63z"/>
   <path class="fil0" d="M106.73 32.08l0 72.07c0,24.3 45.62,28.71 45.62,-3.65l0 -65.68c0,-14.15 -9.69,-21 -20.14,-21.9l-4.86 0c-10.63,0.92 -20.62,7.77 -20.62,19.16z"/>
   <path class="fil0" d="M348.49 31.17l0 72.98c0,8.91 8.5,18.25 17.34,18.25l10.03 0c9.02,0 17.34,-8.32 17.34,-17.34l0 -74.81c0,-9.65 -9.34,-17.33 -17.34,-17.33l-9.12 0c-9.44,0 -18.25,8.8 -18.25,18.25z"/>
   <path class="fil0" d="M81.19 367.81c-2.05,8.76 -0.91,38.3 -0.91,49.26 0,4.26 2.12,6.39 6.38,6.39l51.09 0c3.07,0 6.39,-1.61 6.39,-4.56 0,-11.18 1.14,-42.25 -0.92,-51.09 -6.76,-1.58 -56.95,-1.97 -62.03,0z"/>
   <path class="fil0" d="M350.32 367.81c-2.04,8.76 -0.91,38.3 -0.91,49.26 0,4.26 2.12,6.39 6.38,6.39l51.09 0c3.08,0 6.39,-1.61 6.39,-4.56 0,-11.18 1.14,-42.25 -0.91,-51.09 -6.77,-1.58 -56.96,-1.97 -62.04,0z"/>
   <path class="fil0" d="M169.68 373.28c0,9.85 -1.65,42.02 1.83,49.27 9,2.09 43.96,0.91 55.65,0.91 3.07,0 6.38,-1.61 6.38,-4.56l0 -48.36c0,-2.13 -1.51,-3.64 -3.65,-3.64l-55.65 0c-2.95,0 -4.56,3.31 -4.56,6.38z"/>
   <path class="fil0" d="M349.41 215.45l0 45.62c0,4.26 2.12,6.38 6.38,6.38l51.09 0c3.08,0 6.39,-1.61 6.39,-4.56l0 -47.44c0,-2.12 -2.44,-4.56 -4.56,-4.56l-54.74 0c-2.13,0 -4.56,2.44 -4.56,4.56z"/>
   <path class="fil0" d="M349.41 294.82c0,10.97 -1.13,40.5 0.91,49.27 7.46,1.74 54.57,1.74 62.04,0 2.05,-8.84 0.91,-39.92 0.91,-51.09 0,-2.14 -1.52,-3.65 -3.65,-3.65l-56.56 0c-2.81,0 -3.65,2.67 -3.65,5.47z"/>
   <path class="fil0" d="M80.28 294.82c0,10.97 -1.14,40.5 0.91,49.27 7.46,1.74 54.57,1.74 62.03,0 2.06,-8.84 0.92,-39.92 0.92,-51.09 0,-2.14 -1.52,-3.65 -3.65,-3.65l-56.57 0c-2.8,0 -3.64,2.67 -3.64,5.47z"/>
   <path class="fil0" d="M260 370.54l0 48.36c0,2.95 3.31,4.56 6.39,4.56l51.08 0c2.81,0 5.48,-0.85 5.48,-3.65l0 -49.27c0,-2.13 -1.51,-3.64 -3.65,-3.64l-55.65 0c-2.14,0 -3.65,1.51 -3.65,3.64z"/>
   <path class="fil0" d="M260 214.54l0 48.35c0,2.13 2.43,4.56 4.56,4.56l52.91 0c2.81,0 5.48,-0.84 5.48,-3.65l0 -49.26c0,-2.13 -1.51,-3.65 -3.65,-3.65l-53.83 0c-2.8,0 -5.47,0.85 -5.47,3.65z"/>
   <path class="fil0" d="M169.68 296.65l0 41.96c0,3.08 1.61,6.39 4.56,6.39l55.65 0c2.14,0 3.65,-1.51 3.65,-3.65l0 -48.35c0,-2.14 -1.51,-3.65 -3.65,-3.65l-56.56 0c-3.2,0 -3.65,4.05 -3.65,7.3z"/>
   <path class="fil0" d="M260 293l0 48.35c0,2.14 1.51,3.65 3.65,3.65l55.65 0c2.14,0 3.65,-1.51 3.65,-3.65l0 -49.26c0,-2.11 -0.64,-2.74 -2.74,-2.74l-56.56 0c-2.14,0 -3.65,1.51 -3.65,3.65z"/>
  </g>
 </g>
</svg>
