<?xml version="1.0" encoding="UTF-8"?>
<!DOCTYPE svg PUBLIC "-//W3C//DTD SVG 1.1//EN" "http://www.w3.org/Graphics/SVG/1.1/DTD/svg11.dtd">
<!-- Creator: CorelDRAW -->
<svg xmlns="http://www.w3.org/2000/svg" xml:space="preserve" width="500px" height="500px" version="1.1" style="shape-rendering:geometricPrecision; text-rendering:geometricPrecision; image-rendering:optimizeQuality; fill-rule:evenodd; clip-rule:evenodd"
viewBox="0 0 500 500"
 xmlns:xlink="http://www.w3.org/1999/xlink"
 xmlns:xodm="http://www.corel.com/coreldraw/odm/2003">
 <defs>
  <style type="text/css">
   <![CDATA[
    .fil0 {fill:white}
   ]]>
  </style>
 </defs>
 <g id="Camada_x0020_1">
  <metadata id="CorelCorpID_0Corel-Layer"/>
  <g id="_2470621173904">
   <path class="fil0" d="M43.87 224.5c8.6,-16.26 61.95,-61.21 81.31,-72.64 47.88,-28.26 76.5,-40.44 133.95,-40.44 78.48,0 149.11,60.49 194.82,113.08l-18.05 20.1c-7.13,7.06 -13.43,12.14 -20.41,19.09l-20.89 17.27c-7.94,6.02 -14.86,10.7 -23.21,16.29 -29.49,19.76 -79.91,40.33 -114.99,40.33 -36.45,0 -48.47,-0.73 -83.28,-13.45 -37.65,-13.76 -73.97,-42.11 -102.37,-69.29l-26.88 -30.34zm199.63 -148.5l13.56 0c37.14,1.09 75.08,11.25 113.33,31.78 32.03,17.2 75.41,54.32 98.87,80.97 13.93,15.81 24.2,24.05 24.2,38.48 0,10.22 -35.55,44.39 -43.94,52.79 -8.5,8.51 -16.73,15.24 -25.96,23.08 -4.59,3.9 -9.02,6.8 -13.99,10.54l-44.16 28.04c-41.54,21.63 -76.73,31.32 -126.72,31.32 -54.77,0 -109.65,-27.1 -141.48,-50.61l-14.02 -10.51c-4.97,-3.7 -8.81,-7.02 -13.64,-10.88l-36.78 -35.42c-7.39,-9.26 -29.77,-29.33 -29.77,-41.08 0,-9.38 17.4,-28.41 24.85,-36.46l44.44 -41.39c53.35,-43.45 111.13,-68.85 171.21,-70.65z"/>
   <path class="fil0" d="M255.04 276.27l-10.9 0c-24.19,0 -47.68,-23.49 -47.68,-47.68l0 -8.18c0,-24.19 23.49,-47.68 47.68,-47.68 17.67,0 29.01,1.32 43.28,16.66 32.51,34.94 1.2,86.88 -32.38,86.88zm-94 -51.77c0,48.8 41.58,87.19 81.74,87.19 28.95,0 46.97,-5.3 66.42,-24.86 27.67,-27.83 34.41,-67.88 17.6,-101.4 -12.66,-25.27 -42.36,-48.12 -73.12,-48.12 -29.51,0 -47.5,5.99 -68.48,26.89 -13.16,13.1 -24.16,34.41 -24.16,60.3z"/>
  </g>
 </g>
</svg>
