<?xml version="1.0" encoding="UTF-8"?>
<!DOCTYPE svg PUBLIC "-//W3C//DTD SVG 1.1//EN" "http://www.w3.org/Graphics/SVG/1.1/DTD/svg11.dtd">
<!-- Creator: CorelDRAW -->
<svg xmlns="http://www.w3.org/2000/svg" xml:space="preserve" width="500px" height="500px" version="1.1" style="shape-rendering:geometricPrecision; text-rendering:geometricPrecision; image-rendering:optimizeQuality; fill-rule:evenodd; clip-rule:evenodd"
viewBox="0 0 500 500"
 xmlns:xlink="http://www.w3.org/1999/xlink"
 xmlns:xodm="http://www.corel.com/coreldraw/odm/2003">
 <defs>
  <style type="text/css">
   <![CDATA[
    .fil0 {fill:#E5E5E5}
   ]]>
  </style>
 </defs>
 <g id="Camada_x0020_1">
  <metadata id="CorelCorpID_0Corel-Layer"/>
  <g id="_2470762518832">
   <path class="fil0" d="M37.06 374.89l37.62 -0.22 0 37.4 -37.62 -37.18zm69.1 -360.89l6.87 0c3.59,0.64 7.06,2.29 9.99,5.1 6.77,6.49 11.99,18.37 12.22,28.74l83.71 0c4.73,0 1.46,-8.26 8.5,-20.88 3.99,-7.15 9.87,-11.68 16.09,-12.96l7.17 0c3.47,0.73 6.86,2.53 9.89,5.54 14.77,14.65 8.46,28.3 14.45,28.3l83.71 0c0.16,-7.14 3.5,-16.45 6.39,-21.22 2.43,-4.02 2.87,-4.78 6.29,-7.96 2.7,-2.52 5.93,-4.05 9.3,-4.66l7 0c5.18,0.92 10.06,3.86 13.26,8.53 19.54,28.57 -10.16,25.34 38.8,25.31 7.59,0 13.6,-0.1 19.25,2.12 13.71,5.4 27.95,19.42 27.95,35.28l0 373.14c0,8.06 -7.44,19.54 -11.76,23.86 -4.33,4.32 -15.81,11.76 -23.86,11.76l-408.76 0c-15.7,0 -35.62,-19.92 -35.62,-35.62l0 -373.14c0,-11.17 8.62,-22.57 15,-27.74 11.48,-9.33 18.91,-9.66 33.09,-9.66 35.08,0.01 27.7,2.27 29.95,-7.45 0.47,-2.04 0.72,-2.23 1.32,-4.02 2.33,-6.85 3.12,-8.88 7,-14.37 3.06,-4.33 7.75,-7.12 12.8,-8zm138.61 85.49c10.53,0 14.47,-2.48 20.5,-11.56 3.06,-4.61 7.11,-14.69 7.11,-22.28l119.33 0c-0.29,3.53 -3.37,12.57 -5.15,14.45 -4.02,4.25 -10.88,0.03 -10.88,11.38 0,10.14 17.2,12.84 27.26,-3.92 3.28,-5.47 6.58,-13.54 6.58,-21.91l33.84 0c30.9,0 26.72,31.2 26.72,50.76l-412.32 0c-11.48,0 -11.48,17.81 0,17.81l412.32 0 0 315.25c0,16.37 -11.24,27.61 -27.61,27.61l-390.94 0c-19.12,0 -27.71,-12.92 -27.62,-31.16 0.11,-19.59 0.01,-39.2 0.01,-58.78l43.41 42.97c4.88,4.87 11.41,13.13 16.26,13.13l352.65 0c11.48,0 11.48,-17.81 0,-17.81l-343.75 0 0 -60.56c0,-4.4 -3.61,-8.01 -8.01,-8.01l-60.56 0 0 -263.6c0,-16.22 10.43,-27.61 26.72,-27.61l65.9 0c-0.48,21.35 -16.03,13.42 -16.03,24.94 0,16.21 31.63,12.29 34.73,-24.94l119.33 0c-3.99,17.11 -5.83,14.7 -11.33,17.17 -9.69,4.36 -4.03,16.67 1.53,16.67zm138.93 -68.57c4.41,2.96 7.45,10.18 8.01,16.92l-14.25 0c0,-7.66 3.16,-12.32 6.24,-16.92zm-137.15 0c5.04,3.38 6.43,10.11 8.02,16.92l-15.14 0c2.34,-10.05 2.51,-10.03 7.12,-16.92zm-136.25 0c3.08,4.6 6.24,9.26 6.24,16.92l-14.25 0c0.14,-6.45 4.05,-14.26 8.01,-16.92z"/>
   <path class="fil0" d="M135.24 274.04c0,19.82 0.75,24.49 6.23,42.75 1.16,3.86 2.51,6.42 4.07,10.17 14.59,35.1 52.36,61.01 88.61,63.67 20.88,1.54 27.64,0.94 48.41,-4.89 31.46,-8.83 59.92,-36.88 69.77,-68.27 10.17,-32.41 9.19,-63.92 -8.33,-93.68 -2.58,-4.39 -5.1,-10.51 -12.32,-8.95 -5.73,1.24 -8.97,6.81 -6.47,12.54 4.08,9.34 15.74,20.04 15.74,50.22 0,25.55 -9.49,50.04 -27.38,67.9 -9.59,9.57 -14.61,13.3 -27.31,19.9 -3.58,1.86 -12.8,4.92 -17.11,6.04 -52.79,13.75 -116.1,-26.2 -116.1,-92.06 0,-13.87 3.61,-28.62 8.17,-38.14 4.62,-9.66 11.13,-19.93 18.76,-27.55 28.36,-28.29 65.39,-34.38 103.21,-20.82 10.59,3.8 21.78,16.6 27.97,4.11 4.96,-10.02 -10.39,-15.94 -20.36,-20.62 -18.38,-8.61 -50.58,-11.48 -71.21,-4.98 -3.58,1.13 -6.49,2.01 -10.12,3.24 -40.08,13.57 -74.23,55.61 -74.23,99.42z"/>
   <path class="fil0" d="M264.36 298.08c0,21.33 -22.02,8.96 -44.2,12.79 -10.12,1.75 -11.14,10.24 -6.37,15.52 3.91,4.34 15.43,2.86 23.86,2.86 0,21.12 18.7,18.5 18.7,1.78l0 -2.67c20.01,0 32.96,-23.6 22.57,-43.05 -4.29,-8.04 -11.57,-12.59 -22.02,-14.49 -5.88,-1.07 -12.28,0.38 -18.29,-0.42 -10.68,-1.41 -13.51,-18.35 -0.32,-21.55 15.69,-3.8 44.78,6.48 44.78,-9.54 0,-3.34 -3.19,-7.28 -5.92,-8.33 -3.57,-1.39 -9.5,-0.61 -13.71,-0.55 -9.86,0.13 -6.96,0.99 -7.24,-5.21 -0.21,-4.57 -2.39,-7.71 -6.16,-9.07 -12.77,-4.6 -12.32,13.32 -13.24,14.3 -0.91,0.97 -4.24,1.24 -5.58,1.54 -20.47,4.53 -27.08,36.44 -9.77,50.23 13.31,10.61 25.78,3.27 36.33,7.31 3.28,1.25 6.58,4.42 6.58,8.55z"/>
  </g>
 </g>
</svg>
