<?xml version="1.0" encoding="UTF-8"?>
<!DOCTYPE svg PUBLIC "-//W3C//DTD SVG 1.1//EN" "http://www.w3.org/Graphics/SVG/1.1/DTD/svg11.dtd">
<!-- Creator: CorelDRAW -->
<svg xmlns="http://www.w3.org/2000/svg" xml:space="preserve" width="500px" height="500px" version="1.1" style="shape-rendering:geometricPrecision; text-rendering:geometricPrecision; image-rendering:optimizeQuality; fill-rule:evenodd; clip-rule:evenodd"
viewBox="0 0 500 500"
 xmlns:xlink="http://www.w3.org/1999/xlink"
 xmlns:xodm="http://www.corel.com/coreldraw/odm/2003">
 <defs>
  <style type="text/css">
   <![CDATA[
    .fil0 {fill:#585858}
   ]]>
  </style>
 </defs>
 <g id="Camada_x0020_1">
  <metadata id="CorelCorpID_0Corel-Layer"/>
  <path class="fil0" d="M425.86 388.12l43.45 0 0 32.01 -43.45 0 0 -32.01zm-399 0l43.45 0 0 32.01 -43.45 0 0 -32.01zm0 -26.29l0 -40.02 442.45 0 0 43.45 -439.02 0c-2.63,0 -3.43,-0.8 -3.43,-3.43zm0 -74.31c0,-30.45 25.14,-54.88 56.03,-54.88l332.68 0c15.4,0 28.96,7.68 37.2,15.39 16.22,15.15 16.54,30.68 16.54,49.77l-442.45 0 0 -10.28zm254.95 -99.47c0,-11.23 9.28,-21.72 20.58,-21.72l70.88 0c8.23,0 18.3,10.06 18.3,18.29l0 25.15 -109.76 0 0 -21.72zm-177.2 1.14c0,-13.36 8.56,-22.86 20.58,-22.86l68.59 0c24.64,0 20.58,27.46 20.58,43.44l-109.75 0 0 -20.58zm-22.87 -3.43l0 24.01c-7.1,0 -16.33,0.85 -21.72,3.43 0,-15.2 -0.95,-89.35 0.43,-97.89 2.22,-13.67 7.9,-25.46 16.11,-33.05 7.72,-7.15 19.73,-15.4 33.76,-15.4l275.53 0c24.17,0 47.31,22.33 50.18,48.15l0.12 98.19c-5.62,-2.7 -13.29,-3.43 -21.72,-3.43 0,-24.51 3.42,-37.28 -13.41,-54.04 -6.18,-6.16 -15.94,-12.27 -27.75,-12.27l-74.31 0c-18.37,0 -40.01,19.65 -40.01,44.59l0 21.72 -21.72 0 0 -25.15c0,-20.67 -20.4,-41.16 -41.16,-41.16l-73.17 0c-20.97,0 -41.16,21.05 -41.16,42.3zm-44.59 38.87c-8.84,4.69 -17.37,15.46 -22.66,24.22 -5.56,9.19 -10.49,23.12 -10.49,37.52l0 134.91c0,11.26 11.01,21.72 19.43,21.72l50.31 0c6.53,0 19.43,-8.37 19.43,-20.58l0 -34.3 309.83 0c0,17.92 -2.75,36.78 5.49,47.1 2.5,3.13 8.81,7.78 13.94,7.78l50.31 0c6.53,0 19.43,-8.37 19.43,-20.58l0 -140.62c0,-21.5 -13.91,-42.67 -29.44,-55.16 -5.41,-4.35 -3.74,-7.87 -3.71,-16.87 0.06,-20.9 1.33,-92.57 -1.61,-105.86 -2.55,-11.49 -7.83,-21.53 -13.88,-29.56 -10.18,-13.52 -32.53,-30.35 -55.39,-30.35l-280.1 0c-24.43,0 -46.51,17.55 -58.33,35.42 -4.49,6.78 -7.17,13.03 -9.81,22.2 -5.89,20.44 -2.75,94.4 -2.75,123.01z"/>
 </g>
</svg>
