<?xml version="1.0" encoding="UTF-8"?>
<!DOCTYPE svg PUBLIC "-//W3C//DTD SVG 1.1//EN" "http://www.w3.org/Graphics/SVG/1.1/DTD/svg11.dtd">
<!-- Creator: CorelDRAW -->
<svg xmlns="http://www.w3.org/2000/svg" xml:space="preserve" width="500px" height="500px" version="1.1" style="shape-rendering:geometricPrecision; text-rendering:geometricPrecision; image-rendering:optimizeQuality; fill-rule:evenodd; clip-rule:evenodd"
viewBox="0 0 500 500"
 xmlns:xlink="http://www.w3.org/1999/xlink"
 xmlns:xodm="http://www.corel.com/coreldraw/odm/2003">
 <defs>
  <style type="text/css">
   <![CDATA[
    .fil0 {fill:#E5E5E5}
   ]]>
  </style>
 </defs>
 <g id="Camada_x0020_1">
  <metadata id="CorelCorpID_0Corel-Layer"/>
  <g id="_2470769782736">
   <path class="fil0" d="M58.33 169.83c0,-6.42 6.83,-6.21 12.93,-7.08l89.86 -13.1c14.75,-2.06 20.88,-3.19 29.49,-12.45 4.89,-5.25 36.21,-70.81 41.53,-81.44 2.54,-5.08 10.84,-25.4 15.88,-26.05 5.52,-0.72 12.75,17.87 16.21,24.78 5.27,10.54 37.28,77.26 41.7,82.22 7.97,8.94 13.7,10.55 28.3,12.69l90.67 13.23c6.23,0.99 13.77,0.49 13.77,7.2 0,3.91 -15.58,18.31 -19.07,20.97 -6.45,4.93 -14.55,14.07 -20.73,20.26 -3.57,3.57 -6.44,6.44 -10.01,10.01 -10.55,10.56 -19.59,17.27 -31.46,30.5 -14.04,15.66 -5.04,40.65 -0.85,66.15 1.94,11.79 3.97,23.05 5.98,35.01 1.26,7.44 5.6,28.79 5.6,35.39 0,0.69 -1.95,3.81 -5.72,3.81 -3.78,0 -10.71,-4.45 -13.75,-6.27l-81.89 -42.98c-21.77,-10.91 -29.36,-3.09 -49.56,7.01l-54.34 28.59c-5.19,2.79 -24.8,13.65 -29.23,13.65 -8.68,0 -3.03,-17.14 -2.32,-21.38l14.99 -87c2.19,-13.3 1.48,-22.36 -6.27,-31.48 -5.76,-6.79 -13.96,-13.98 -20.46,-20.52l-20.97 -20.01c-6.4,-6.4 -13.86,-14.87 -20.54,-20.46 -3.85,-3.21 -19.74,-16.61 -19.74,-21.25zm-26.69 0c0,12.32 6.9,19.77 13.59,26.45 7.06,7.07 13.45,13.42 20.49,20.5l20.97 20.02c9.28,9.28 15.84,16.59 25.7,24.82 11.04,9.23 8.75,10.91 7.22,20.01 -2,11.95 -4.03,23.21 -5.98,35.01 -1.55,9.32 -11.45,62.19 -11.45,70.53 0,16.34 14.4,31.45 33.36,31.45 11.44,0 42.07,-18.66 56.88,-26.05l41.31 -21.61c2.38,-1.18 4.49,-2.16 6.84,-3.63 9.7,-6.06 11.56,-2.34 22.07,3.32l54.96 28.92c13.84,7.21 32.78,19.05 45.76,19.05 16.28,0 31.46,-15.18 31.46,-31.45 0,-6.69 -1.26,-11.42 -2.31,-17.71l-14.99 -87.01c-2.87,-17.36 -1.37,-11.32 12.3,-25.15l30.02 -30.04c3.89,-3.92 7.08,-6.08 10.96,-10 5.28,-5.33 26.97,-25.69 29.82,-31.19 9.72,-18.76 2.57,-37.4 -13.66,-45.5 -9.01,-4.5 -67.76,-11.79 -81.64,-13.69l-31.68 -4.54c-4.88,-0.74 -6.1,-0.44 -8.16,-4.23 -11.59,-21.22 -35.29,-71.51 -47.26,-95.72 -12.79,-25.87 -46.86,-24.35 -58.82,-1.28 -15.44,29.81 -32.04,65.48 -47.57,96.36 -2.92,5.81 -6.62,4.42 -17.64,6.19 -7.16,1.15 -14.07,2.18 -20.72,3.11 -10.55,1.49 -74.1,9.21 -82.8,13.48 -10.87,5.32 -19.03,16.24 -19.03,29.58z"/>
   <path class="fil0" d="M234.68 454.85c0,12.54 -2.19,30.49 13.47,30.88 20.97,0.53 14.06,-40.33 11.1,-44.02 -5.73,-7.16 -14.73,-7.69 -21.05,-0.5 -2.8,3.18 -3.52,8.01 -3.52,13.64z"/>
   <path class="fil0" d="M479.66 317.58c7.2,0 12.28,-4.79 13.34,-10.51l0 -4.48c-0.9,-4.86 -4.8,-9.67 -12.73,-12.31 -10.64,-3.54 -30.46,-13.16 -35.05,3.43 -3.85,13.89 11.99,17.19 18.82,19.47 4.13,1.37 11.36,4.4 15.62,4.4z"/>
   <path class="fil0" d="M364.32 50.68c0,7.88 6.01,13.35 15.25,13.35 7.74,0 14.12,-12.56 20.28,-20.71 3.52,-4.65 6.14,-7.71 4.53,-14.51 -1.71,-7.22 -7.41,-9.59 -14.33,-9.59 -7.5,0 -11.59,8.72 -15.1,13.5 -2.6,3.53 -10.63,13.12 -10.63,17.96z"/>
   <path class="fil0" d="M4 304.24c0,8.47 4.87,13.34 13.34,13.34 3.81,0 26.57,-7.36 29.84,-10.2 9.33,-8.11 5.41,-23.16 -8.86,-23.16 -4.13,0 -7.47,1.75 -10.6,2.75 -10.45,3.33 -23.72,4.76 -23.72,17.27z"/>
   <path class="fil0" d="M117.43 64.03c12.52,0 19.91,-9.73 10.31,-23.66 -9.21,-13.37 -12.66,-21.15 -23.65,-21.15 -5.65,0 -18.96,8.35 -7.36,23.57 6.3,8.27 12.9,21.24 20.7,21.24z"/>
  </g>
 </g>
</svg>
