<?xml version="1.0" encoding="UTF-8"?>
<!DOCTYPE svg PUBLIC "-//W3C//DTD SVG 1.1//EN" "http://www.w3.org/Graphics/SVG/1.1/DTD/svg11.dtd">
<!-- Creator: CorelDRAW -->
<svg xmlns="http://www.w3.org/2000/svg" xml:space="preserve" width="500px" height="500px" version="1.1" style="shape-rendering:geometricPrecision; text-rendering:geometricPrecision; image-rendering:optimizeQuality; fill-rule:evenodd; clip-rule:evenodd"
viewBox="0 0 500 500"
 xmlns:xlink="http://www.w3.org/1999/xlink"
 xmlns:xodm="http://www.corel.com/coreldraw/odm/2003">
 <defs>
  <style type="text/css">
   <![CDATA[
    .fil0 {fill:#595959}
   ]]>
  </style>
 </defs>
 <g id="Camada_x0020_1">
  <metadata id="CorelCorpID_0Corel-Layer"/>
  <g id="_2470767364080">
   <path class="fil0" d="M338.28 116.47c0,10.59 4.04,11.85 11.72,19.53 4.24,4.25 9.76,10.75 14.32,13.8l-17.95 18.52c-11.2,-7.39 -18.53,-25.81 -34.14,-25.81 -7.86,0 -12.5,6.64 -12.5,15.63 0,6.79 7.83,12.51 11.72,16.41 4.25,4.24 9.76,10.74 14.33,13.8l-17.95 18.51c-11.21,-7.38 -18.53,-25.8 -34.14,-25.8 -7.86,0 -12.5,6.64 -12.5,15.62 0,6.8 7.82,12.52 11.72,16.41 4.24,4.25 9.76,10.75 14.32,13.81l-17.95 18.51c-12.45,-8.21 -17.54,-25.81 -35.18,-25.81 -7.08,0 -11.46,7.06 -11.46,15.63 0,7.05 22.85,28.07 26.05,30.21l-18.5 19.01c-2.17,-3.16 -24.37,-26.3 -28.38,-26.3 -9.5,0 -17.71,0.86 -17.71,15.62 0,7.26 11.75,14.78 18.58,23.1 3.02,3.67 4.57,2.79 7.46,7.11l-18.5 19.01c-3.89,-5.69 -15.89,-16.37 -21.32,-21.9 -10.35,-10.56 -24.77,-2.88 -24.77,9.15 0,8.77 7.01,12.73 11.72,17.45 4.28,4.27 11.29,10.3 14.33,14.84 -2.4,3.58 -15,16.71 -18.75,17.71 -7.68,-5.14 -21.78,-26.04 -31.26,-26.04 -7.11,0 -14.58,6.04 -14.58,14.58 0,12.15 17.75,19.91 26.04,32.3 -2.46,3.67 -15.98,17.73 -19.79,18.75l-78.39 -77.88 288.56 -289.08 78.66 78.13c-1.89,6.36 -13.14,13.35 -16.93,19.01 -11.39,-7.63 -19.38,-26.04 -34.38,-26.04 -6.26,0 -12.5,6.24 -12.5,12.5zm-16.91 -111.47l5.12 0c3.89,0.35 7.76,1.5 11.38,3.53 5.8,3.25 17.85,16.91 24.21,22.68l9.68 9.06c2.89,2.62 2.61,3.95 6.56,6.99 4.33,3.35 2.72,3.13 6.03,6.47 2.49,2.51 4.46,3.32 7.33,6.21 7.19,7.22 27.42,26.79 31.89,32.7 2.42,3.22 3.47,4.11 5,8.55 3.41,9.92 3.01,16.14 -2.05,25.39 -3.02,5.53 -5.94,7.36 -9.32,10.47l-256.28 256.27c-6.85,6.85 -12.94,12.94 -19.79,19.79 -5.65,5.65 -13.17,14.84 -23.7,14.84 -20.88,0 -22.5,-5.31 -38.29,-21.09l-51.57 -51.57c-14.39,-14.39 -20.57,-17.22 -20.57,-36.72 0,-10.63 9.17,-19.06 14.84,-24.74 6.86,-6.85 12.95,-12.94 19.8,-19.79l235.96 -234.92c4.44,-4.45 25.93,-26.77 30,-29.37 4.21,-2.69 8.94,-4.32 13.77,-4.75z"/>
   <path class="fil0" d="M401.83 207.1c0,19.5 16.22,15.63 30.21,15.63 -3.82,5.69 -163.64,164.16 -181.53,182.05 -4.61,4.6 -22.27,24.04 -26.83,25.26 0,-6.55 1.25,-15.44 -0.66,-21.22 -4.46,-13.49 -27.46,-11.88 -27.46,6.63l0 48.97c0,7.15 5.7,14.58 12.5,14.58l54.17 0c6.38,0 17.32,-7.93 11.18,-20.54 -4.72,-9.71 -15.3,-7.59 -28.89,-7.59 3.78,-5.64 152.94,-153.45 168.5,-169.02 2.31,-2.3 3.91,-4.05 6.28,-6.22l20.31 -19.28c2.85,-2.74 10.1,-11.64 13.26,-12.79 0,10.03 -3.71,30.21 13.55,30.21 4.61,0 6.67,-0.97 9.18,-3.31 1.47,-1.36 5.4,-5.92 5.4,-8.14l0 -56.26c0,-1.81 -4.29,-11.46 -14.58,-11.46l-52.09 0c-6.26,0 -12.5,6.24 -12.5,12.5z"/>
  </g>
 </g>
</svg>
