<?xml version="1.0" encoding="UTF-8"?>
<!DOCTYPE svg PUBLIC "-//W3C//DTD SVG 1.1//EN" "http://www.w3.org/Graphics/SVG/1.1/DTD/svg11.dtd">
<!-- Creator: CorelDRAW -->
<svg xmlns="http://www.w3.org/2000/svg" xml:space="preserve" width="500px" height="500px" version="1.1" style="shape-rendering:geometricPrecision; text-rendering:geometricPrecision; image-rendering:optimizeQuality; fill-rule:evenodd; clip-rule:evenodd"
viewBox="0 0 500 500"
 xmlns:xlink="http://www.w3.org/1999/xlink"
 xmlns:xodm="http://www.corel.com/coreldraw/odm/2003">
 <defs>
  <style type="text/css">
   <![CDATA[
    .fil0 {fill:white}
   ]]>
  </style>
 </defs>
 <g id="Camada_x0020_1">
  <metadata id="CorelCorpID_0Corel-Layer"/>
  <g id="_2176406549760">
   <g id="_2284226089024">
    <path class="fil0" d="M62.16 244.94c0,-67.92 30.37,-117.88 75.83,-151.89 25.72,-19.24 64.01,-35.4 99.33,-35.4 36.23,0 58.26,1.37 91.18,17.96 20.36,10.26 34.61,19.67 51.31,36.27 25.22,25.07 52.88,72.53 52.88,122.28 0,43.82 -4.65,67.14 -25.66,103.69 -2.42,4.21 -6.11,9.58 -9.16,13.74 -7.22,9.82 -12.9,15.83 -21.43,24.38 -55.83,55.9 -142.56,67.93 -215.04,31.12 -22.06,-11.21 -11.03,-11.45 -38.07,-5.33l-42.3 10.24c0.97,-11.76 14.82,-50.88 14.82,-59.28 0,-3.24 -10.16,-19.07 -12.14,-22.88 -12.66,-24.32 -21.55,-54.85 -21.55,-84.91l0 0.01zm-47.15 -13.48c0,48.57 2.83,64.58 20.39,107.6 6.77,16.59 11.3,14.83 9.09,24.12l-23.03 84.92c-1.12,4.41 -2.55,9.15 -3.77,13.75 -0.76,2.91 -1.08,4.19 -2,7.63 -1.33,4.92 -1.65,6.33 1.47,6.13l110.79 -26.19c6.91,-1.83 6.67,-2.69 12.35,0.2 64.78,32.84 144.04,35.52 208.86,2.81 97.76,-49.32 150.43,-154.5 125.83,-261.93 -3.68,-16.13 -8.14,-29.96 -14.44,-43.48 -6.67,-14.31 -13.05,-24.66 -21.11,-36.83 -4.12,-6.21 -7.93,-10.84 -12.7,-16.95l-28.88 -29.06c-5.79,-4.67 -10.54,-8.31 -16.91,-12.73 -37.98,-26.38 -81.73,-42.31 -132.85,-42.31 -36.37,0 -76.46,10.33 -102.59,24.06 -3.41,1.78 -5.87,3.26 -9.69,5.14 -7.4,3.63 -11.03,6.33 -17.61,10.68 -57.58,38.16 -103.2,111.62 -103.2,182.44l0 0z"/>
    <path class="fil0" d="M129.54 184.3c0,18.26 0.82,27.83 9.38,44.5 12.35,24.03 36.44,53.02 54.26,71.05 10.54,10.66 35.02,28.63 48.74,34.8 31.58,14.17 79.98,33.71 109.62,4.29 10.05,-9.98 12.84,-14.49 14.88,-32.45 1.5,-13.26 -11.13,-14.71 -24.91,-21.57 -39.03,-19.4 -31.76,-21.7 -55.47,8.73 -8.95,11.49 -17.28,6.9 -38.02,-5.53 -13.68,-8.19 -12.23,-8.29 -23.4,-17.01 -9.9,-7.74 -34.45,-36 -34.45,-46.39 0,-4.9 18.86,-18.61 18.86,-29.65 0,-6.14 -15.1,-43.14 -19.72,-51.69 -5.31,-9.81 -11.82,-8.93 -22.05,-8.93 -13.21,0 -20.01,9.46 -25.82,17.3 -5.54,7.47 -11.9,19.95 -11.9,32.55l0 0z"/>
   </g>
  </g>
 </g>
</svg>
