<?xml version="1.0" encoding="UTF-8"?>
<!DOCTYPE svg PUBLIC "-//W3C//DTD SVG 1.1//EN" "http://www.w3.org/Graphics/SVG/1.1/DTD/svg11.dtd">
<!-- Creator: CorelDRAW -->
<svg xmlns="http://www.w3.org/2000/svg" xml:space="preserve" width="500px" height="500px" version="1.1" style="shape-rendering:geometricPrecision; text-rendering:geometricPrecision; image-rendering:optimizeQuality; fill-rule:evenodd; clip-rule:evenodd"
viewBox="0 0 500 500"
 xmlns:xlink="http://www.w3.org/1999/xlink"
 xmlns:xodm="http://www.corel.com/coreldraw/odm/2003">
 <defs>
  <style type="text/css">
   <![CDATA[
    .fil0 {fill:white}
   ]]>
  </style>
 </defs>
 <g id="Camada_x0020_1">
  <metadata id="CorelCorpID_0Corel-Layer"/>
  <g id="_1855986485424">
   <path class="fil0" d="M262.44 478.35c-46.16,0 -71.29,-1.45 -113.59,-21.61 -74.09,-35.32 -131.2,-115.55 -131.2,-197.57 0,-41.93 3.31,-72.43 21.35,-108.16 25.22,-49.95 56.32,-83.58 108.17,-109.58 89.85,-45.07 198.17,-22.51 267.23,47.29l12.55 14.49c4.45,5.69 8.21,10.82 11.98,16.49 57.04,85.9 52.3,191.94 -10.77,272.45 -36.76,46.92 -104.75,86.2 -165.72,86.2zm-22.96 -475.35l14.95 0c31.33,0.95 62.97,7.95 93.44,21.31 22.76,9.97 36.93,19.81 55.48,34.18 26.46,20.51 49.64,51.11 64.98,81.61 22.52,44.74 24.67,74.82 24.67,123.34 0,64.14 -41.12,135.92 -89.44,175.28 -16.23,13.22 -45.9,31.32 -65.5,38.39 -3.44,1.23 -7.16,2.68 -10.35,3.88 -6.4,2.42 -14.7,4.8 -21.99,6.48 -53.31,12.28 -114.6,7.4 -161.41,-16.23 -30.37,-15.34 -45.92,-25.3 -70.79,-50.18 -46.12,-46.11 -71.52,-105.42 -71.52,-174.69 0,-36.89 10.09,-74.8 22.28,-100.12 14.05,-29.18 27.51,-48.58 49.95,-71.02 45.52,-45.53 104.32,-70.34 165.25,-72.23z"/>
   <path class="fil0" d="M251.06 330.33c-17.3,0 -35.36,-3.9 -47.25,-11.1 -17.12,-10.37 -18.68,2.01 -42.41,3.99 0.51,-6.19 3.87,-16.01 5.53,-21.52 3.4,-11.33 4.41,-10.67 -1.18,-19.83 -25.85,-42.31 -8.02,-110.66 45.21,-132.53 78.47,-32.23 157.02,42.53 124.3,124.3 -11.3,28.22 -44.89,56.69 -84.2,56.69zm-109.59 -95.35c0,33.69 13.5,49.62 14.89,54.77 1.15,4.22 -11.63,44.1 -13.46,51.97 7.84,-1.83 46.88,-14.12 50.79,-13.48 1.99,0.33 8.41,4.02 10.42,4.92 40.82,18.48 87.05,10.62 118.47,-20.97 23.53,-23.66 32.37,-44.82 32.37,-80.06 0,-53.64 -48.8,-102.46 -102.47,-102.46 -21.85,0 -31.18,1.69 -49.8,9.96 -12.14,5.39 -21.33,13.54 -30.26,22.41 -17.84,17.75 -30.95,45.17 -30.95,72.94z"/>
   <path class="fil0" d="M194.13 205.09c0,21.59 20.3,51.93 34.98,63.23 13.33,10.26 22.58,20.62 44.13,25.6 24.88,5.76 36.17,-10.04 36.17,-16.24 0,-5.82 -13.95,-17.59 -18.1,-21.77 -10.84,-10.9 -14.69,0.43 -23.17,6.11 -15.11,-3.52 -36.33,-24.74 -39.85,-39.85 10.88,-16.25 19.39,-9.78 -0.36,-29.53 -3.45,-3.46 -9.79,-11.74 -15.3,-11.74 -7.65,0 -18.5,15.58 -18.5,24.19z"/>
  </g>
 </g>
</svg>
